<?xml version="1.0" encoding="UTF-8" standalone="no"?>
<!DOCTYPE svg PUBLIC "-//W3C//DTD SVG 1.1//EN"
 "http://www.w3.org/Graphics/SVG/1.1/DTD/svg11.dtd">
<!-- Generated by graphviz version 2.38.0 (20140413.2041)
 -->
<!-- Title: G Pages: 1 -->
<svg width="549pt" height="1374pt"
 viewBox="0.00 0.00 548.72 1374.00" xmlns="http://www.w3.org/2000/svg" xmlns:xlink="http://www.w3.org/1999/xlink">
<g id="graph0" class="graph" transform="scale(1 1) rotate(0) translate(4 1370)">
<title>G</title>
<polygon fill="white" stroke="none" points="-4,4 -4,-1370 544.716,-1370 544.716,4 -4,4"/>
<g id="clust1" class="cluster"><title>cluster_Global</title>
<path fill="none" stroke="gray" d="M20,-8C20,-8 520.716,-8 520.716,-8 526.716,-8 532.716,-14 532.716,-20 532.716,-20 532.716,-1346 532.716,-1346 532.716,-1352 526.716,-1358 520.716,-1358 520.716,-1358 20,-1358 20,-1358 14,-1358 8,-1352 8,-1346 8,-1346 8,-20 8,-20 8,-14 14,-8 20,-8"/>
<text text-anchor="middle" x="270.358" y="-1345.2" font-family="Times,serif" font-size="11.00" fill="gray">\</text>
</g>
<g id="clust2" class="cluster"><title>cluster_\Neuron</title>
<path fill="none" stroke="gray" d="M28,-16C28,-16 512.716,-16 512.716,-16 518.716,-16 524.716,-22 524.716,-28 524.716,-28 524.716,-1319 524.716,-1319 524.716,-1325 518.716,-1331 512.716,-1331 512.716,-1331 28,-1331 28,-1331 22,-1331 16,-1325 16,-1319 16,-1319 16,-28 16,-28 16,-22 22,-16 28,-16"/>
<text text-anchor="middle" x="270.358" y="-1318.2" font-family="Times,serif" font-size="11.00" fill="gray">Neuron</text>
</g>
<g id="clust3" class="cluster"><title>cluster_\Neuron\Log</title>
<path fill="none" stroke="gray" d="M36,-70C36,-70 280.215,-70 280.215,-70 286.215,-70 292.215,-76 292.215,-82 292.215,-82 292.215,-721 292.215,-721 292.215,-727 286.215,-733 280.215,-733 280.215,-733 36,-733 36,-733 30,-733 24,-727 24,-721 24,-721 24,-82 24,-82 24,-76 30,-70 36,-70"/>
<text text-anchor="middle" x="158.108" y="-720.2" font-family="Times,serif" font-size="11.00" fill="gray">Log</text>
</g>
<g id="clust4" class="cluster"><title>cluster_\Neuron\Log\Destination</title>
<path fill="none" stroke="gray" d="M44,-419C44,-419 267.754,-419 267.754,-419 273.754,-419 279.754,-425 279.754,-431 279.754,-431 279.754,-694 279.754,-694 279.754,-700 273.754,-706 267.754,-706 267.754,-706 44,-706 44,-706 38,-706 32,-700 32,-694 32,-694 32,-431 32,-431 32,-425 38,-419 44,-419"/>
<text text-anchor="middle" x="155.877" y="-693.2" font-family="Times,serif" font-size="11.00" fill="gray">Destination</text>
</g>
<g id="clust5" class="cluster"><title>cluster_\Neuron\Log\Format</title>
<path fill="none" stroke="gray" d="M61.0481,-232C61.0481,-232 269.755,-232 269.755,-232 275.755,-232 281.755,-238 281.755,-244 281.755,-244 281.755,-399 281.755,-399 281.755,-405 275.755,-411 269.755,-411 269.755,-411 61.0481,-411 61.0481,-411 55.0481,-411 49.0481,-405 49.0481,-399 49.0481,-399 49.0481,-244 49.0481,-244 49.0481,-238 55.0481,-232 61.0481,-232"/>
<text text-anchor="middle" x="165.401" y="-398.2" font-family="Times,serif" font-size="11.00" fill="gray">Format</text>
</g>
<g id="clust6" class="cluster"><title>cluster_\Neuron\Data</title>
<path fill="none" stroke="gray" d="M201.902,-874C201.902,-874 473.475,-874 473.475,-874 479.475,-874 485.475,-880 485.475,-886 485.475,-886 485.475,-1292 485.475,-1292 485.475,-1298 479.475,-1304 473.475,-1304 473.475,-1304 201.902,-1304 201.902,-1304 195.902,-1304 189.902,-1298 189.902,-1292 189.902,-1292 189.902,-886 189.902,-886 189.902,-880 195.902,-874 201.902,-874"/>
<text text-anchor="middle" x="337.689" y="-1291.2" font-family="Times,serif" font-size="11.00" fill="gray">Data</text>
</g>
<g id="clust7" class="cluster"><title>cluster_\Neuron\Data\Validation</title>
<path fill="none" stroke="gray" d="M209.902,-882C209.902,-882 465.475,-882 465.475,-882 471.475,-882 477.475,-888 477.475,-894 477.475,-894 477.475,-1265 477.475,-1265 477.475,-1271 471.475,-1277 465.475,-1277 465.475,-1277 209.902,-1277 209.902,-1277 203.902,-1277 197.902,-1271 197.902,-1265 197.902,-1265 197.902,-894 197.902,-894 197.902,-888 203.902,-882 209.902,-882"/>
<text text-anchor="middle" x="337.689" y="-1264.2" font-family="Times,serif" font-size="11.00" fill="gray">Validation</text>
</g>
<g id="clust8" class="cluster"><title>cluster_\Neuron\Parser</title>
<path fill="none" stroke="gray" d="M221.754,-741C221.754,-741 465.067,-741 465.067,-741 471.067,-741 477.067,-747 477.067,-753 477.067,-753 477.067,-854 477.067,-854 477.067,-860 471.067,-866 465.067,-866 465.067,-866 221.754,-866 221.754,-866 215.754,-866 209.754,-860 209.754,-854 209.754,-854 209.754,-753 209.754,-753 209.754,-747 215.754,-741 221.754,-741"/>
<text text-anchor="middle" x="343.41" y="-853.2" font-family="Times,serif" font-size="11.00" fill="gray">Parser</text>
</g>
<g id="clust9" class="cluster"><title>cluster_\Neuron\Util</title>
<path fill="none" stroke="gray" d="M414.681,-285C414.681,-285 463.447,-285 463.447,-285 469.447,-285 475.447,-291 475.447,-297 475.447,-297 475.447,-506 475.447,-506 475.447,-512 469.447,-518 463.447,-518 463.447,-518 414.681,-518 414.681,-518 408.681,-518 402.681,-512 402.681,-506 402.681,-506 402.681,-297 402.681,-297 402.681,-291 408.681,-285 414.681,-285"/>
<text text-anchor="middle" x="439.064" y="-505.2" font-family="Times,serif" font-size="11.00" fill="gray">Util</text>
</g>
<!-- \\Neuron\\Log\\Destination\\Null -->
<g id="node1" class="node"><title>\\Neuron\\Log\\Destination\\Null</title>
<polygon fill="none" stroke="black" points="271.754,-679 217.754,-679 217.754,-643 271.754,-643 271.754,-679"/>
<text text-anchor="middle" x="244.754" y="-657.7" font-family="Times,serif" font-size="11.00">Null</text>
</g>
<!-- \\Neuron\\Log\\Destination\\DestinationBase -->
<g id="node2" class="node"><title>\\Neuron\\Log\\Destination\\DestinationBase</title>
<polygon fill="none" stroke="black" points="128.144,-571 39.9519,-571 39.9519,-535 128.144,-535 128.144,-571"/>
<text text-anchor="start" x="61.4465" y="-555.2" font-family="Times,serif" font-size="11.00">«abstract»</text>
<text text-anchor="start" x="48" y="-544.2" font-family="Times,serif" font-size="11.00">DestinationBase</text>
</g>
<!-- \\Neuron\\Log\\Destination\\Null&#45;&gt;\\Neuron\\Log\\Destination\\DestinationBase -->
<g id="edge2" class="edge"><title>\\Neuron\\Log\\Destination\\Null&#45;&gt;\\Neuron\\Log\\Destination\\DestinationBase</title>
<path fill="none" stroke="black" d="M217.725,-649.209C208.707,-644.797 198.668,-639.511 189.902,-634 162.739,-616.923 134.048,-594.408 113.558,-577.451"/>
<polygon fill="none" stroke="black" points="115.773,-574.741 105.854,-571.018 111.286,-580.114 115.773,-574.741"/>
</g>
<!-- \\Neuron\\Log\\Destination\\File -->
<g id="node3" class="node"><title>\\Neuron\\Log\\Destination\\File</title>
<polygon fill="none" stroke="black" points="271.754,-625 217.754,-625 217.754,-589 271.754,-589 271.754,-625"/>
<text text-anchor="middle" x="244.754" y="-603.7" font-family="Times,serif" font-size="11.00">File</text>
</g>
<!-- \\Neuron\\Log\\Destination\\File&#45;&gt;\\Neuron\\Log\\Destination\\DestinationBase -->
<g id="edge8" class="edge"><title>\\Neuron\\Log\\Destination\\File&#45;&gt;\\Neuron\\Log\\Destination\\DestinationBase</title>
<path fill="none" stroke="black" d="M217.547,-598.083C195.984,-590.746 164.731,-580.112 137.993,-571.015"/>
<polygon fill="none" stroke="black" points="138.967,-567.649 128.373,-567.741 136.712,-574.276 138.967,-567.649"/>
</g>
<!-- \\Neuron\\Log\\Destination\\StdOut -->
<g id="node4" class="node"><title>\\Neuron\\Log\\Destination\\StdOut</title>
<polygon fill="none" stroke="black" points="271.754,-571 217.754,-571 217.754,-535 271.754,-535 271.754,-571"/>
<text text-anchor="middle" x="244.754" y="-549.7" font-family="Times,serif" font-size="11.00">StdOut</text>
</g>
<!-- \\Neuron\\Log\\Destination\\StdOut&#45;&gt;\\Neuron\\Log\\Destination\\DestinationBase -->
<g id="edge13" class="edge"><title>\\Neuron\\Log\\Destination\\StdOut&#45;&gt;\\Neuron\\Log\\Destination\\DestinationBase</title>
<path fill="none" stroke="black" d="M217.547,-553C196.173,-553 165.278,-553 138.697,-553"/>
<polygon fill="none" stroke="black" points="138.373,-549.5 128.373,-553 138.373,-556.5 138.373,-549.5"/>
</g>
<!-- \\Neuron\\Log\\Destination\\Echoer -->
<g id="node5" class="node"><title>\\Neuron\\Log\\Destination\\Echoer</title>
<polygon fill="none" stroke="black" points="271.754,-517 217.754,-517 217.754,-481 271.754,-481 271.754,-517"/>
<text text-anchor="middle" x="244.754" y="-495.7" font-family="Times,serif" font-size="11.00">Echoer</text>
</g>
<!-- \\Neuron\\Log\\Destination\\Echoer&#45;&gt;\\Neuron\\Log\\Destination\\DestinationBase -->
<g id="edge14" class="edge"><title>\\Neuron\\Log\\Destination\\Echoer&#45;&gt;\\Neuron\\Log\\Destination\\DestinationBase</title>
<path fill="none" stroke="black" d="M217.547,-507.917C195.984,-515.254 164.731,-525.888 137.993,-534.985"/>
<polygon fill="none" stroke="black" points="136.712,-531.724 128.373,-538.259 138.967,-538.351 136.712,-531.724"/>
</g>
<!-- \\Neuron\\Log\\Destination\\StdErr -->
<g id="node6" class="node"><title>\\Neuron\\Log\\Destination\\StdErr</title>
<polygon fill="none" stroke="black" points="271.754,-463 217.754,-463 217.754,-427 271.754,-427 271.754,-463"/>
<text text-anchor="middle" x="244.754" y="-441.7" font-family="Times,serif" font-size="11.00">StdErr</text>
</g>
<!-- \\Neuron\\Log\\Destination\\StdErr&#45;&gt;\\Neuron\\Log\\Destination\\DestinationBase -->
<g id="edge21" class="edge"><title>\\Neuron\\Log\\Destination\\StdErr&#45;&gt;\\Neuron\\Log\\Destination\\DestinationBase</title>
<path fill="none" stroke="black" d="M217.725,-456.791C208.707,-461.203 198.668,-466.489 189.902,-472 162.739,-489.077 134.048,-511.592 113.558,-528.549"/>
<polygon fill="none" stroke="black" points="111.286,-525.886 105.854,-534.982 115.773,-531.259 111.286,-525.886"/>
</g>
<!-- \\Neuron\\Log\\Format\\CSV -->
<g id="node7" class="node"><title>\\Neuron\\Log\\Format\\CSV</title>
<polygon fill="none" stroke="black" points="271.754,-384 217.754,-384 217.754,-348 271.754,-348 271.754,-384"/>
<text text-anchor="middle" x="244.754" y="-362.7" font-family="Times,serif" font-size="11.00">CSV</text>
</g>
<!-- \\Neuron\\Log\\Format\\IFormat -->
<g id="node10" class="node"><title>\\Neuron\\Log\\Format\\IFormat</title>
<polygon fill="none" stroke="black" points="111.048,-330 57.0481,-330 57.0481,-294 111.048,-294 111.048,-330"/>
<text text-anchor="middle" x="84.0481" y="-308.7" font-family="Times,serif" font-size="11.00">IFormat</text>
</g>
<!-- \\Neuron\\Log\\Format\\CSV&#45;&gt;\\Neuron\\Log\\Format\\IFormat -->
<g id="edge5" class="edge"><title>\\Neuron\\Log\\Format\\CSV&#45;&gt;\\Neuron\\Log\\Format\\IFormat</title>
<path fill="none" stroke="black" stroke-dasharray="1,5" d="M217.547,-357.083C191.128,-348.094 150.163,-334.156 120.778,-324.157"/>
<polygon fill="none" stroke="black" points="121.889,-320.838 111.294,-320.93 119.634,-327.465 121.889,-320.838"/>
</g>
<!-- \\Neuron\\Log\\Format\\HTML -->
<g id="node8" class="node"><title>\\Neuron\\Log\\Format\\HTML</title>
<polygon fill="none" stroke="black" points="271.754,-330 217.754,-330 217.754,-294 271.754,-294 271.754,-330"/>
<text text-anchor="middle" x="244.754" y="-308.7" font-family="Times,serif" font-size="11.00">HTML</text>
</g>
<!-- \\Neuron\\Log\\Format\\HTML&#45;&gt;\\Neuron\\Log\\Format\\IFormat -->
<g id="edge12" class="edge"><title>\\Neuron\\Log\\Format\\HTML&#45;&gt;\\Neuron\\Log\\Format\\IFormat</title>
<path fill="none" stroke="black" stroke-dasharray="1,5" d="M217.547,-312C191.357,-312 150.874,-312 121.547,-312"/>
<polygon fill="none" stroke="black" points="121.294,-308.5 111.294,-312 121.294,-315.5 121.294,-308.5"/>
</g>
<!-- \\Neuron\\Log\\Format\\PlainText -->
<g id="node9" class="node"><title>\\Neuron\\Log\\Format\\PlainText</title>
<polygon fill="none" stroke="black" points="273.756,-276 215.752,-276 215.752,-240 273.756,-240 273.756,-276"/>
<text text-anchor="middle" x="244.754" y="-254.7" font-family="Times,serif" font-size="11.00">PlainText</text>
</g>
<!-- \\Neuron\\Log\\Format\\PlainText&#45;&gt;\\Neuron\\Log\\Format\\IFormat -->
<g id="edge19" class="edge"><title>\\Neuron\\Log\\Format\\PlainText&#45;&gt;\\Neuron\\Log\\Format\\IFormat</title>
<path fill="none" stroke="black" stroke-dasharray="1,5" d="M215.746,-267.53C189.318,-276.522 149.575,-290.045 120.856,-299.816"/>
<polygon fill="none" stroke="black" points="119.536,-296.568 111.197,-303.103 121.791,-303.195 119.536,-296.568"/>
</g>
<!-- \\Neuron\\Log\\Logger -->
<g id="node11" class="node"><title>\\Neuron\\Log\\Logger</title>
<polygon fill="none" stroke="black" points="271.754,-222 217.754,-222 217.754,-186 271.754,-186 271.754,-222"/>
<text text-anchor="middle" x="244.754" y="-200.7" font-family="Times,serif" font-size="11.00">Logger</text>
</g>
<!-- \\Neuron\\Log\\ILogger -->
<g id="node14" class="node"><title>\\Neuron\\Log\\ILogger</title>
<polygon fill="none" stroke="black" points="111.048,-168 57.0481,-168 57.0481,-132 111.048,-132 111.048,-168"/>
<text text-anchor="middle" x="84.0481" y="-146.7" font-family="Times,serif" font-size="11.00">ILogger</text>
</g>
<!-- \\Neuron\\Log\\Logger&#45;&gt;\\Neuron\\Log\\ILogger -->
<g id="edge9" class="edge"><title>\\Neuron\\Log\\Logger&#45;&gt;\\Neuron\\Log\\ILogger</title>
<path fill="none" stroke="black" stroke-dasharray="1,5" d="M217.547,-195.083C191.128,-186.094 150.163,-172.156 120.778,-162.157"/>
<polygon fill="none" stroke="black" points="121.889,-158.838 111.294,-158.93 119.634,-165.465 121.889,-158.838"/>
</g>
<!-- \\Neuron\\Log\\LoggableBase -->
<g id="node12" class="node"><title>\\Neuron\\Log\\LoggableBase</title>
<polygon fill="none" stroke="black" points="284.176,-168 205.332,-168 205.332,-132 284.176,-132 284.176,-168"/>
<text text-anchor="middle" x="244.754" y="-146.7" font-family="Times,serif" font-size="11.00">LoggableBase</text>
</g>
<!-- \\Neuron\\Log\\LoggableBase&#45;&gt;\\Neuron\\Log\\ILogger -->
<g id="edge15" class="edge"><title>\\Neuron\\Log\\LoggableBase&#45;&gt;\\Neuron\\Log\\ILogger</title>
<path fill="none" stroke="black" stroke-dasharray="1,5" d="M204.93,-150C179.396,-150 146.209,-150 121.228,-150"/>
<polygon fill="none" stroke="black" points="121.071,-146.5 111.07,-150 121.07,-153.5 121.071,-146.5"/>
</g>
<!-- \\Neuron\\Log\\Data -->
<g id="node13" class="node"><title>\\Neuron\\Log\\Data</title>
<polygon fill="none" stroke="black" points="271.754,-114 217.754,-114 217.754,-78 271.754,-78 271.754,-114"/>
<text text-anchor="middle" x="244.754" y="-92.7" font-family="Times,serif" font-size="11.00">Data</text>
</g>
<!-- \\Neuron\\Data\\Validation\\Date -->
<g id="node15" class="node"><title>\\Neuron\\Data\\Validation\\Date</title>
<polygon fill="none" stroke="black" points="466.064,-1250 412.064,-1250 412.064,-1214 466.064,-1214 466.064,-1250"/>
<text text-anchor="middle" x="439.064" y="-1228.7" font-family="Times,serif" font-size="11.00">Date</text>
</g>
<!-- \\Neuron\\Data\\Validation\\ValidatorBase -->
<g id="node22" class="node"><title>\\Neuron\\Data\\Validation\\ValidatorBase</title>
<polygon fill="none" stroke="black" points="283.458,-1088 206.05,-1088 206.05,-1052 283.458,-1052 283.458,-1088"/>
<text text-anchor="start" x="222.152" y="-1072.2" font-family="Times,serif" font-size="11.00">«abstract»</text>
<text text-anchor="start" x="213.902" y="-1061.2" font-family="Times,serif" font-size="11.00">ValidatorBase</text>
</g>
<!-- \\Neuron\\Data\\Validation\\Date&#45;&gt;\\Neuron\\Data\\Validation\\ValidatorBase -->
<g id="edge3" class="edge"><title>\\Neuron\\Data\\Validation\\Date&#45;&gt;\\Neuron\\Data\\Validation\\ValidatorBase</title>
<path fill="none" stroke="black" d="M411.992,-1226.45C396.375,-1222.27 376.661,-1215.44 361.412,-1205 318.953,-1175.92 282.735,-1127.44 262.643,-1097.18"/>
<polygon fill="none" stroke="black" points="265.325,-1094.89 256.936,-1088.41 259.459,-1098.7 265.325,-1094.89"/>
</g>
<!-- \\Neuron\\Data\\Validation\\Email -->
<g id="node16" class="node"><title>\\Neuron\\Data\\Validation\\Email</title>
<polygon fill="none" stroke="black" points="466.064,-1196 412.064,-1196 412.064,-1160 466.064,-1160 466.064,-1196"/>
<text text-anchor="middle" x="439.064" y="-1174.7" font-family="Times,serif" font-size="11.00">Email</text>
</g>
<!-- \\Neuron\\Data\\Validation\\Email&#45;&gt;\\Neuron\\Data\\Validation\\ValidatorBase -->
<g id="edge4" class="edge"><title>\\Neuron\\Data\\Validation\\Email&#45;&gt;\\Neuron\\Data\\Validation\\ValidatorBase</title>
<path fill="none" stroke="black" d="M411.784,-1170.69C396.637,-1166.01 377.474,-1159.26 361.412,-1151 330.48,-1135.1 298.31,-1111.95 275.775,-1094.46"/>
<polygon fill="none" stroke="black" points="277.658,-1091.49 267.632,-1088.06 273.334,-1096.99 277.658,-1091.49"/>
</g>
<!-- \\Neuron\\Data\\Validation\\IPAddress -->
<g id="node17" class="node"><title>\\Neuron\\Data\\Validation\\IPAddress</title>
<polygon fill="none" stroke="black" points="469.386,-1142 408.742,-1142 408.742,-1106 469.386,-1106 469.386,-1142"/>
<text text-anchor="middle" x="439.064" y="-1120.7" font-family="Times,serif" font-size="11.00">IPAddress</text>
</g>
<!-- \\Neuron\\Data\\Validation\\IPAddress&#45;&gt;\\Neuron\\Data\\Validation\\ValidatorBase -->
<g id="edge10" class="edge"><title>\\Neuron\\Data\\Validation\\IPAddress&#45;&gt;\\Neuron\\Data\\Validation\\ValidatorBase</title>
<path fill="none" stroke="black" d="M408.437,-1115.68C377.812,-1107.08 329.526,-1093.52 293.503,-1083.41"/>
<polygon fill="none" stroke="black" points="294.266,-1079.99 283.693,-1080.65 292.374,-1086.73 294.266,-1079.99"/>
</g>
<!-- \\Neuron\\Data\\Validation\\Url -->
<g id="node18" class="node"><title>\\Neuron\\Data\\Validation\\Url</title>
<polygon fill="none" stroke="black" points="466.064,-1088 412.064,-1088 412.064,-1052 466.064,-1052 466.064,-1088"/>
<text text-anchor="middle" x="439.064" y="-1066.7" font-family="Times,serif" font-size="11.00">Url</text>
</g>
<!-- \\Neuron\\Data\\Validation\\Url&#45;&gt;\\Neuron\\Data\\Validation\\ValidatorBase -->
<g id="edge11" class="edge"><title>\\Neuron\\Data\\Validation\\Url&#45;&gt;\\Neuron\\Data\\Validation\\ValidatorBase</title>
<path fill="none" stroke="black" d="M411.727,-1070C381.45,-1070 331.135,-1070 293.825,-1070"/>
<polygon fill="none" stroke="black" points="293.675,-1066.5 283.675,-1070 293.675,-1073.5 293.675,-1066.5"/>
</g>
<!-- \\Neuron\\Data\\Validation\\String -->
<g id="node19" class="node"><title>\\Neuron\\Data\\Validation\\String</title>
<polygon fill="none" stroke="black" points="466.064,-1034 412.064,-1034 412.064,-998 466.064,-998 466.064,-1034"/>
<text text-anchor="middle" x="439.064" y="-1012.7" font-family="Times,serif" font-size="11.00">String</text>
</g>
<!-- \\Neuron\\Data\\Validation\\String&#45;&gt;\\Neuron\\Data\\Validation\\ValidatorBase -->
<g id="edge16" class="edge"><title>\\Neuron\\Data\\Validation\\String&#45;&gt;\\Neuron\\Data\\Validation\\ValidatorBase</title>
<path fill="none" stroke="black" d="M411.727,-1023.4C381.321,-1031.93 330.705,-1046.15 293.348,-1056.64"/>
<polygon fill="none" stroke="black" points="292.356,-1053.28 283.675,-1059.35 294.249,-1060.02 292.356,-1053.28"/>
</g>
<!-- \\Neuron\\Data\\Validation\\Integer -->
<g id="node20" class="node"><title>\\Neuron\\Data\\Validation\\Integer</title>
<polygon fill="none" stroke="black" points="466.064,-980 412.064,-980 412.064,-944 466.064,-944 466.064,-980"/>
<text text-anchor="middle" x="439.064" y="-958.7" font-family="Times,serif" font-size="11.00">Integer</text>
</g>
<!-- \\Neuron\\Data\\Validation\\Integer&#45;&gt;\\Neuron\\Data\\Validation\\ValidatorBase -->
<g id="edge18" class="edge"><title>\\Neuron\\Data\\Validation\\Integer&#45;&gt;\\Neuron\\Data\\Validation\\ValidatorBase</title>
<path fill="none" stroke="black" d="M411.784,-969.308C396.637,-973.994 377.474,-980.744 361.412,-989 330.48,-1004.9 298.31,-1028.05 275.775,-1045.54"/>
<polygon fill="none" stroke="black" points="273.334,-1043.01 267.632,-1051.94 277.658,-1048.51 273.334,-1043.01"/>
</g>
<!-- \\Neuron\\Data\\Validation\\Float -->
<g id="node21" class="node"><title>\\Neuron\\Data\\Validation\\Float</title>
<polygon fill="none" stroke="black" points="466.064,-926 412.064,-926 412.064,-890 466.064,-890 466.064,-926"/>
<text text-anchor="middle" x="439.064" y="-904.7" font-family="Times,serif" font-size="11.00">Float</text>
</g>
<!-- \\Neuron\\Data\\Validation\\Float&#45;&gt;\\Neuron\\Data\\Validation\\ValidatorBase -->
<g id="edge20" class="edge"><title>\\Neuron\\Data\\Validation\\Float&#45;&gt;\\Neuron\\Data\\Validation\\ValidatorBase</title>
<path fill="none" stroke="black" d="M411.992,-913.555C396.375,-917.73 376.661,-924.555 361.412,-935 318.953,-964.081 282.735,-1012.56 262.643,-1042.82"/>
<polygon fill="none" stroke="black" points="259.459,-1041.3 256.936,-1051.59 265.325,-1045.11 259.459,-1041.3"/>
</g>
<!-- \\Neuron\\Parser\\Positional -->
<g id="node23" class="node"><title>\\Neuron\\Parser\\Positional</title>
<polygon fill="none" stroke="black" points="469.069,-839 409.059,-839 409.059,-803 469.069,-803 469.069,-839"/>
<text text-anchor="middle" x="439.064" y="-817.7" font-family="Times,serif" font-size="11.00">Positional</text>
</g>
<!-- \\Neuron\\Parser\\IParser -->
<g id="node25" class="node"><title>\\Neuron\\Parser\\IParser</title>
<polygon fill="none" stroke="black" points="271.754,-812 217.754,-812 217.754,-776 271.754,-776 271.754,-812"/>
<text text-anchor="middle" x="244.754" y="-790.7" font-family="Times,serif" font-size="11.00">IParser</text>
</g>
<!-- \\Neuron\\Parser\\Positional&#45;&gt;\\Neuron\\Parser\\IParser -->
<g id="edge6" class="edge"><title>\\Neuron\\Parser\\Positional&#45;&gt;\\Neuron\\Parser\\IParser</title>
<path fill="none" stroke="black" stroke-dasharray="1,5" d="M408.856,-816.899C374.906,-812.133 318.851,-804.263 282.111,-799.104"/>
<polygon fill="none" stroke="black" points="282.225,-795.586 271.835,-797.662 281.251,-802.518 282.225,-795.586"/>
</g>
<!-- \\Neuron\\Parser\\CSV -->
<g id="node24" class="node"><title>\\Neuron\\Parser\\CSV</title>
<polygon fill="none" stroke="black" points="466.064,-785 412.064,-785 412.064,-749 466.064,-749 466.064,-785"/>
<text text-anchor="middle" x="439.064" y="-763.7" font-family="Times,serif" font-size="11.00">CSV</text>
</g>
<!-- \\Neuron\\Parser\\CSV&#45;&gt;\\Neuron\\Parser\\IParser -->
<g id="edge17" class="edge"><title>\\Neuron\\Parser\\CSV&#45;&gt;\\Neuron\\Parser\\IParser</title>
<path fill="none" stroke="black" stroke-dasharray="1,5" d="M411.727,-770.698C378.065,-775.424 319.634,-783.627 281.846,-788.933"/>
<polygon fill="none" stroke="black" points="281.189,-785.491 271.772,-790.347 282.162,-792.423 281.189,-785.491"/>
</g>
<!-- \\Neuron\\Util\\Email -->
<g id="node26" class="node"><title>\\Neuron\\Util\\Email</title>
<polygon fill="none" stroke="black" points="466.064,-491 412.064,-491 412.064,-455 466.064,-455 466.064,-491"/>
<text text-anchor="middle" x="439.064" y="-469.7" font-family="Times,serif" font-size="11.00">Email</text>
</g>
<!-- \\Neuron\\Util\\System -->
<g id="node27" class="node"><title>\\Neuron\\Util\\System</title>
<polygon fill="none" stroke="black" points="466.064,-437 412.064,-437 412.064,-401 466.064,-401 466.064,-437"/>
<text text-anchor="middle" x="439.064" y="-415.7" font-family="Times,serif" font-size="11.00">System</text>
</g>
<!-- \\Neuron\\Util\\Date -->
<g id="node28" class="node"><title>\\Neuron\\Util\\Date</title>
<polygon fill="none" stroke="black" points="466.064,-383 412.064,-383 412.064,-347 466.064,-347 466.064,-383"/>
<text text-anchor="middle" x="439.064" y="-361.7" font-family="Times,serif" font-size="11.00">Date</text>
</g>
<!-- \\Neuron\\Util\\Template -->
<g id="node29" class="node"><title>\\Neuron\\Util\\Template</title>
<polygon fill="none" stroke="black" points="467.331,-329 410.797,-329 410.797,-293 467.331,-293 467.331,-329"/>
<text text-anchor="middle" x="439.064" y="-307.7" font-family="Times,serif" font-size="11.00">Template</text>
</g>
<!-- \\Neuron\\ApplicationBase -->
<g id="node30" class="node"><title>\\Neuron\\ApplicationBase</title>
<polygon fill="none" stroke="black" points="289.57,-60 199.938,-60 199.938,-24 289.57,-24 289.57,-60"/>
<text text-anchor="start" x="222.152" y="-44.2" font-family="Times,serif" font-size="11.00">«abstract»</text>
<text text-anchor="start" x="208.096" y="-33.2" font-family="Times,serif" font-size="11.00">ApplicationBase</text>
</g>
<!-- \\Neuron\\ApplicationBase&#45;&gt;\\Neuron\\Log\\ILogger -->
<g id="edge1" class="edge"><title>\\Neuron\\ApplicationBase&#45;&gt;\\Neuron\\Log\\ILogger</title>
<path fill="none" stroke="black" stroke-dasharray="1,5" d="M200.619,-60.0206C196.931,-61.9211 193.311,-63.9226 189.902,-66 161.593,-83.2529 132.397,-107.241 112.025,-125.168"/>
<polygon fill="none" stroke="black" points="109.542,-122.692 104.402,-131.956 114.198,-127.92 109.542,-122.692"/>
</g>
<!-- \\Neuron\\CommandLineApplicationBase -->
<g id="node31" class="node"><title>\\Neuron\\CommandLineApplicationBase</title>
<polygon fill="none" stroke="black" points="516.869,-60 361.259,-60 361.259,-24 516.869,-24 516.869,-60"/>
<text text-anchor="start" x="416.462" y="-44.2" font-family="Times,serif" font-size="11.00">«abstract»</text>
<text text-anchor="start" x="369.412" y="-33.2" font-family="Times,serif" font-size="11.00">CommandLineApplicationBase</text>
</g>
<!-- \\Neuron\\CommandLineApplicationBase&#45;&gt;\\Neuron\\ApplicationBase -->
<g id="edge7" class="edge"><title>\\Neuron\\CommandLineApplicationBase&#45;&gt;\\Neuron\\ApplicationBase</title>
<path fill="none" stroke="black" d="M361.229,-42C340.566,-42 318.661,-42 299.548,-42"/>
<polygon fill="none" stroke="black" points="299.536,-38.5001 289.536,-42 299.536,-45.5001 299.536,-38.5001"/>
</g>
</g>
</svg>
