<?xml version="1.0" encoding="UTF-8" standalone="no"?>
<!DOCTYPE svg PUBLIC "-//W3C//DTD SVG 1.1//EN"
 "http://www.w3.org/Graphics/SVG/1.1/DTD/svg11.dtd">
<!-- Generated by graphviz version 2.38.0 (20140413.2041)
 -->
<!-- Title: G Pages: 1 -->
<svg width="375pt" height="1898pt"
 viewBox="0.00 0.00 375.43 1898.00" xmlns="http://www.w3.org/2000/svg" xmlns:xlink="http://www.w3.org/1999/xlink">
<g id="graph0" class="graph" transform="scale(1 1) rotate(0) translate(4 1894)">
<title>G</title>
<polygon fill="white" stroke="none" points="-4,4 -4,-1894 371.431,-1894 371.431,4 -4,4"/>
<g id="clust1" class="cluster"><title>cluster_Global</title>
<path fill="none" stroke="gray" d="M20,-44C20,-44 347.431,-44 347.431,-44 353.431,-44 359.431,-50 359.431,-56 359.431,-56 359.431,-1870 359.431,-1870 359.431,-1876 353.431,-1882 347.431,-1882 347.431,-1882 20,-1882 20,-1882 14,-1882 8,-1876 8,-1870 8,-1870 8,-56 8,-56 8,-50 14,-44 20,-44"/>
<text text-anchor="middle" x="183.716" y="-1869.2" font-family="Times,serif" font-size="11.00" fill="gray">Global</text>
</g>
<g id="clust2" class="cluster"><title>cluster_\Neuron</title>
<path fill="none" stroke="gray" d="M28,-166C28,-166 339.431,-166 339.431,-166 345.431,-166 351.431,-172 351.431,-178 351.431,-178 351.431,-1843 351.431,-1843 351.431,-1849 345.431,-1855 339.431,-1855 339.431,-1855 28,-1855 28,-1855 22,-1855 16,-1849 16,-1843 16,-1843 16,-178 16,-178 16,-172 22,-166 28,-166"/>
<text text-anchor="middle" x="183.716" y="-1842.2" font-family="Times,serif" font-size="11.00" fill="gray">Neuron</text>
</g>
<g id="clust3" class="cluster"><title>cluster_\Neuron\Data</title>
<path fill="none" stroke="gray" d="M52.5027,-1398C52.5027,-1398 326.229,-1398 326.229,-1398 332.229,-1398 338.229,-1404 338.229,-1410 338.229,-1410 338.229,-1816 338.229,-1816 338.229,-1822 332.229,-1828 326.229,-1828 326.229,-1828 52.5027,-1828 52.5027,-1828 46.5027,-1828 40.5027,-1822 40.5027,-1816 40.5027,-1816 40.5027,-1410 40.5027,-1410 40.5027,-1404 46.5027,-1398 52.5027,-1398"/>
<text text-anchor="middle" x="189.366" y="-1815.2" font-family="Times,serif" font-size="11.00" fill="gray">Data</text>
</g>
<g id="clust4" class="cluster"><title>cluster_\Neuron\Data\Validation</title>
<path fill="none" stroke="gray" d="M60.5027,-1406C60.5027,-1406 318.229,-1406 318.229,-1406 324.229,-1406 330.229,-1412 330.229,-1418 330.229,-1418 330.229,-1789 330.229,-1789 330.229,-1795 324.229,-1801 318.229,-1801 318.229,-1801 60.5027,-1801 60.5027,-1801 54.5027,-1801 48.5027,-1795 48.5027,-1789 48.5027,-1789 48.5027,-1418 48.5027,-1418 48.5027,-1412 54.5027,-1406 60.5027,-1406"/>
<text text-anchor="middle" x="189.366" y="-1788.2" font-family="Times,serif" font-size="11.00" fill="gray">Validation</text>
</g>
<g id="clust5" class="cluster"><title>cluster_\Neuron\Database</title>
<path fill="none" stroke="gray" d="M237.617,-1078C237.617,-1078 331.431,-1078 331.431,-1078 337.431,-1078 343.431,-1084 343.431,-1090 343.431,-1090 343.431,-1245 343.431,-1245 343.431,-1251 337.431,-1257 331.431,-1257 331.431,-1257 237.617,-1257 237.617,-1257 231.617,-1257 225.617,-1251 225.617,-1245 225.617,-1245 225.617,-1090 225.617,-1090 225.617,-1084 231.617,-1078 237.617,-1078"/>
<text text-anchor="middle" x="284.524" y="-1244.2" font-family="Times,serif" font-size="11.00" fill="gray">Database</text>
</g>
<g id="clust6" class="cluster"><title>cluster_\Neuron\Log</title>
<path fill="none" stroke="gray" d="M36,-220C36,-220 328.131,-220 328.131,-220 334.131,-220 340.131,-226 340.131,-232 340.131,-232 340.131,-871 340.131,-871 340.131,-877 334.131,-883 328.131,-883 328.131,-883 36,-883 36,-883 30,-883 24,-877 24,-871 24,-871 24,-232 24,-232 24,-226 30,-220 36,-220"/>
<text text-anchor="middle" x="182.065" y="-870.2" font-family="Times,serif" font-size="11.00" fill="gray">Log</text>
</g>
<g id="clust7" class="cluster"><title>cluster_\Neuron\Log\Destination</title>
<path fill="none" stroke="gray" d="M44,-569C44,-569 314.928,-569 314.928,-569 320.928,-569 326.928,-575 326.928,-581 326.928,-581 326.928,-844 326.928,-844 326.928,-850 320.928,-856 314.928,-856 314.928,-856 44,-856 44,-856 38,-856 32,-850 32,-844 32,-844 32,-581 32,-581 32,-575 38,-569 44,-569"/>
<text text-anchor="middle" x="179.464" y="-843.2" font-family="Times,serif" font-size="11.00" fill="gray">Destination</text>
</g>
<g id="clust8" class="cluster"><title>cluster_\Neuron\Log\Format</title>
<path fill="none" stroke="gray" d="M70.4043,-382C70.4043,-382 318.229,-382 318.229,-382 324.229,-382 330.229,-388 330.229,-394 330.229,-394 330.229,-549 330.229,-549 330.229,-555 324.229,-561 318.229,-561 318.229,-561 70.4043,-561 70.4043,-561 64.4043,-561 58.4043,-555 58.4043,-549 58.4043,-549 58.4043,-394 58.4043,-394 58.4043,-388 64.4043,-382 70.4043,-382"/>
<text text-anchor="middle" x="194.317" y="-548.2" font-family="Times,serif" font-size="11.00" fill="gray">Format</text>
</g>
<g id="clust9" class="cluster"><title>cluster_\Neuron\Parser</title>
<path fill="none" stroke="gray" d="M70.4043,-1265C70.4043,-1265 321.53,-1265 321.53,-1265 327.53,-1265 333.53,-1271 333.53,-1277 333.53,-1277 333.53,-1378 333.53,-1378 333.53,-1384 327.53,-1390 321.53,-1390 321.53,-1390 70.4043,-1390 70.4043,-1390 64.4043,-1390 58.4043,-1384 58.4043,-1378 58.4043,-1378 58.4043,-1277 58.4043,-1277 58.4043,-1271 64.4043,-1265 70.4043,-1265"/>
<text text-anchor="middle" x="195.967" y="-1377.2" font-family="Times,serif" font-size="11.00" fill="gray">Parser</text>
</g>
<g id="clust10" class="cluster"><title>cluster_\Neuron\Util</title>
<path fill="none" stroke="gray" d="M260.721,-891C260.721,-891 308.327,-891 308.327,-891 314.327,-891 320.327,-897 320.327,-903 320.327,-903 320.327,-1058 320.327,-1058 320.327,-1064 314.327,-1070 308.327,-1070 308.327,-1070 260.721,-1070 260.721,-1070 254.721,-1070 248.721,-1064 248.721,-1058 248.721,-1058 248.721,-903 248.721,-903 248.721,-897 254.721,-891 260.721,-891"/>
<text text-anchor="middle" x="284.524" y="-1057.2" font-family="Times,serif" font-size="11.00" fill="gray">Util</text>
</g>
<g id="clust11" class="cluster"><title>cluster_\Synapse</title>
<path fill="none" stroke="gray" d="M246.12,-52C246.12,-52 322.928,-52 322.928,-52 328.928,-52 334.928,-58 334.928,-64 334.928,-64 334.928,-146 334.928,-146 334.928,-152 328.928,-158 322.928,-158 322.928,-158 246.12,-158 246.12,-158 240.12,-158 234.12,-152 234.12,-146 234.12,-146 234.12,-64 234.12,-64 234.12,-58 240.12,-52 246.12,-52"/>
<text text-anchor="middle" x="284.524" y="-145.2" font-family="Times,serif" font-size="11.00" fill="gray">Synapse</text>
</g>
<g id="clust12" class="cluster"><title>cluster_\Synapse\Util</title>
<path fill="none" stroke="gray" d="M254.12,-60C254.12,-60 314.928,-60 314.928,-60 320.928,-60 326.928,-66 326.928,-72 326.928,-72 326.928,-119 326.928,-119 326.928,-125 320.928,-131 314.928,-131 314.928,-131 254.12,-131 254.12,-131 248.12,-131 242.12,-125 242.12,-119 242.12,-119 242.12,-72 242.12,-72 242.12,-66 248.12,-60 254.12,-60"/>
<text text-anchor="middle" x="284.524" y="-118.2" font-family="Times,serif" font-size="11.00" fill="gray">Util</text>
</g>
<!-- \\Neuron\\Data\\Validation\\Date -->
<g id="node1" class="node"><title>\\Neuron\\Data\\Validation\\Date</title>
<polygon fill="none" stroke="black" points="311.524,-1774 257.524,-1774 257.524,-1738 311.524,-1738 311.524,-1774"/>
<text text-anchor="middle" x="284.524" y="-1752.7" font-family="Courier,monospace" font-size="11.00">Date</text>
</g>
<!-- \\Neuron\\Data\\Validation\\Validator -->
<g id="node8" class="node"><title>\\Neuron\\Data\\Validation\\Validator</title>
<polygon fill="none" stroke="black" points="138.519,-1612 56.4973,-1612 56.4973,-1576 138.519,-1576 138.519,-1612"/>
<text text-anchor="start" x="64.5027" y="-1596.2" font-family="Courier,monospace" font-size="11.00">«abstract»</text>
<text text-anchor="start" x="67.8032" y="-1585.2" font-family="Courier,monospace" font-size="11.00">Validator</text>
</g>
<!-- \\Neuron\\Data\\Validation\\Date&#45;&gt;\\Neuron\\Data\\Validation\\Validator -->
<g id="edge2" class="edge"><title>\\Neuron\\Data\\Validation\\Date&#45;&gt;\\Neuron\\Data\\Validation\\Validator</title>
<path fill="none" stroke="black" d="M257.285,-1746.27C246.931,-1741.81 235.236,-1735.95 225.617,-1729 182.163,-1697.59 141.447,-1649.91 118.301,-1620.42"/>
<polygon fill="none" stroke="black" points="120.865,-1618.01 111.974,-1612.25 115.331,-1622.3 120.865,-1618.01"/>
</g>
<!-- \\Neuron\\Data\\Validation\\Email -->
<g id="node2" class="node"><title>\\Neuron\\Data\\Validation\\Email</title>
<polygon fill="none" stroke="black" points="311.524,-1720 257.524,-1720 257.524,-1684 311.524,-1684 311.524,-1720"/>
<text text-anchor="middle" x="284.524" y="-1698.7" font-family="Courier,monospace" font-size="11.00">Email</text>
</g>
<!-- \\Neuron\\Data\\Validation\\Email&#45;&gt;\\Neuron\\Data\\Validation\\Validator -->
<g id="edge3" class="edge"><title>\\Neuron\\Data\\Validation\\Email&#45;&gt;\\Neuron\\Data\\Validation\\Validator</title>
<path fill="none" stroke="black" d="M257.508,-1690.75C247.405,-1686.15 235.828,-1680.6 225.617,-1675 193.398,-1657.32 158.275,-1634.66 133.131,-1617.81"/>
<polygon fill="none" stroke="black" points="134.922,-1614.79 124.674,-1612.11 131.009,-1620.6 134.922,-1614.79"/>
</g>
<!-- \\Neuron\\Data\\Validation\\Float -->
<g id="node3" class="node"><title>\\Neuron\\Data\\Validation\\Float</title>
<polygon fill="none" stroke="black" points="311.524,-1666 257.524,-1666 257.524,-1630 311.524,-1630 311.524,-1666"/>
<text text-anchor="middle" x="284.524" y="-1644.7" font-family="Courier,monospace" font-size="11.00">Float</text>
</g>
<!-- \\Neuron\\Data\\Validation\\Float&#45;&gt;\\Neuron\\Data\\Validation\\Validator -->
<g id="edge4" class="edge"><title>\\Neuron\\Data\\Validation\\Float&#45;&gt;\\Neuron\\Data\\Validation\\Validator</title>
<path fill="none" stroke="black" d="M257.408,-1640.38C229.183,-1632.14 183.53,-1618.81 148.384,-1608.56"/>
<polygon fill="none" stroke="black" points="149.353,-1605.19 138.773,-1605.75 147.392,-1611.91 149.353,-1605.19"/>
</g>
<!-- \\Neuron\\Data\\Validation\\Integer -->
<g id="node4" class="node"><title>\\Neuron\\Data\\Validation\\Integer</title>
<polygon fill="none" stroke="black" points="315.732,-1612 253.316,-1612 253.316,-1576 315.732,-1576 315.732,-1612"/>
<text text-anchor="middle" x="284.524" y="-1590.7" font-family="Courier,monospace" font-size="11.00">Integer</text>
</g>
<!-- \\Neuron\\Data\\Validation\\Integer&#45;&gt;\\Neuron\\Data\\Validation\\Validator -->
<g id="edge5" class="edge"><title>\\Neuron\\Data\\Validation\\Integer&#45;&gt;\\Neuron\\Data\\Validation\\Validator</title>
<path fill="none" stroke="black" d="M253.386,-1594C225.084,-1594 182.201,-1594 148.73,-1594"/>
<polygon fill="none" stroke="black" points="148.671,-1590.5 138.671,-1594 148.671,-1597.5 148.671,-1590.5"/>
</g>
<!-- \\Neuron\\Data\\Validation\\IPAddress -->
<g id="node5" class="node"><title>\\Neuron\\Data\\Validation\\IPAddress</title>
<polygon fill="none" stroke="black" points="322.435,-1558 246.613,-1558 246.613,-1522 322.435,-1522 322.435,-1558"/>
<text text-anchor="middle" x="284.524" y="-1536.7" font-family="Courier,monospace" font-size="11.00">IPAddress</text>
</g>
<!-- \\Neuron\\Data\\Validation\\IPAddress&#45;&gt;\\Neuron\\Data\\Validation\\Validator -->
<g id="edge6" class="edge"><title>\\Neuron\\Data\\Validation\\IPAddress&#45;&gt;\\Neuron\\Data\\Validation\\Validator</title>
<path fill="none" stroke="black" d="M246.528,-1550.8C218.362,-1559.02 179.301,-1570.42 148.377,-1579.44"/>
<polygon fill="none" stroke="black" points="147.266,-1576.12 138.647,-1582.28 149.227,-1582.84 147.266,-1576.12"/>
</g>
<!-- \\Neuron\\Data\\Validation\\String -->
<g id="node6" class="node"><title>\\Neuron\\Data\\Validation\\String</title>
<polygon fill="none" stroke="black" points="312.132,-1504 256.916,-1504 256.916,-1468 312.132,-1468 312.132,-1504"/>
<text text-anchor="middle" x="284.524" y="-1482.7" font-family="Courier,monospace" font-size="11.00">String</text>
</g>
<!-- \\Neuron\\Data\\Validation\\String&#45;&gt;\\Neuron\\Data\\Validation\\Validator -->
<g id="edge7" class="edge"><title>\\Neuron\\Data\\Validation\\String&#45;&gt;\\Neuron\\Data\\Validation\\Validator</title>
<path fill="none" stroke="black" d="M256.639,-1497.65C246.744,-1502.17 235.536,-1507.56 225.617,-1513 193.398,-1530.68 158.275,-1553.34 133.131,-1570.19"/>
<polygon fill="none" stroke="black" points="131.009,-1567.4 124.674,-1575.89 134.922,-1573.21 131.009,-1567.4"/>
</g>
<!-- \\Neuron\\Data\\Validation\\Url -->
<g id="node7" class="node"><title>\\Neuron\\Data\\Validation\\Url</title>
<polygon fill="none" stroke="black" points="311.524,-1450 257.524,-1450 257.524,-1414 311.524,-1414 311.524,-1450"/>
<text text-anchor="middle" x="284.524" y="-1428.7" font-family="Courier,monospace" font-size="11.00">Url</text>
</g>
<!-- \\Neuron\\Data\\Validation\\Url&#45;&gt;\\Neuron\\Data\\Validation\\Validator -->
<g id="edge8" class="edge"><title>\\Neuron\\Data\\Validation\\Url&#45;&gt;\\Neuron\\Data\\Validation\\Validator</title>
<path fill="none" stroke="black" d="M257.285,-1441.73C246.931,-1446.19 235.236,-1452.05 225.617,-1459 182.163,-1490.41 141.447,-1538.09 118.301,-1567.58"/>
<polygon fill="none" stroke="black" points="115.331,-1565.7 111.974,-1575.75 120.865,-1569.99 115.331,-1565.7"/>
</g>
<!-- \\Neuron\\Database\\DBCredentials -->
<g id="node9" class="node"><title>\\Neuron\\Database\\DBCredentials</title>
<polygon fill="none" stroke="black" points="335.338,-1230 233.71,-1230 233.71,-1194 335.338,-1194 335.338,-1230"/>
<text text-anchor="start" x="251.519" y="-1214.2" font-family="Courier,monospace" font-size="11.00">«abstract»</text>
<text text-anchor="start" x="241.617" y="-1203.2" font-family="Courier,monospace" font-size="11.00">DBCredentials</text>
</g>
<!-- \\Neuron\\Database\\DBException -->
<g id="node10" class="node"><title>\\Neuron\\Database\\DBException</title>
<polygon fill="none" stroke="black" points="328.637,-1176 240.412,-1176 240.412,-1140 328.637,-1140 328.637,-1176"/>
<text text-anchor="middle" x="284.524" y="-1154.7" font-family="Courier,monospace" font-size="11.00">DBException</text>
</g>
<!-- \\Exception -->
<g id="node34" class="node"><title>\\Exception</title>
<ellipse fill="none" stroke="black" cx="97.5081" cy="-18" rx="48.3341" ry="18"/>
<text text-anchor="middle" x="97.5081" y="-13.8" font-family="Times,serif" font-size="14.00" fill="gray">\Exception</text>
</g>
<!-- \\Neuron\\Database\\DBException&#45;&gt;\\Exception -->
<g id="edge9" class="edge"><title>\\Neuron\\Database\\DBException&#45;&gt;\\Exception</title>
<path fill="none" stroke="black" d="M240.333,-1144.38C234.601,-1140.86 229.407,-1136.47 225.617,-1131 109.499,-963.348 191.026,-416.733 155.016,-216 143.91,-154.088 121.375,-83.744 108.369,-45.8079"/>
<polygon fill="none" stroke="black" points="111.552,-44.3041 104.971,-36.0014 104.938,-46.5961 111.552,-44.3041"/>
</g>
<!-- \\Neuron\\Database\\DBLite -->
<g id="node11" class="node"><title>\\Neuron\\Database\\DBLite</title>
<polygon fill="none" stroke="black" points="312.132,-1122 256.916,-1122 256.916,-1086 312.132,-1086 312.132,-1122"/>
<text text-anchor="middle" x="284.524" y="-1100.7" font-family="Courier,monospace" font-size="11.00">DBLite</text>
</g>
<!-- \\Neuron\\Log\\Destination\\Database -->
<g id="node12" class="node"><title>\\Neuron\\Log\\Destination\\Database</title>
<polygon fill="none" stroke="black" points="318.833,-829 250.215,-829 250.215,-793 318.833,-793 318.833,-829"/>
<text text-anchor="middle" x="284.524" y="-807.7" font-family="Courier,monospace" font-size="11.00">Database</text>
</g>
<!-- \\Neuron\\Log\\Destination\\DestinationBase -->
<g id="node13" class="node"><title>\\Neuron\\Log\\Destination\\DestinationBase</title>
<polygon fill="none" stroke="black" points="155.024,-721 39.9919,-721 39.9919,-685 155.024,-685 155.024,-721"/>
<text text-anchor="start" x="64.5027" y="-705.2" font-family="Courier,monospace" font-size="11.00">«abstract»</text>
<text text-anchor="start" x="48" y="-694.2" font-family="Courier,monospace" font-size="11.00">DestinationBase</text>
</g>
<!-- \\Neuron\\Log\\Destination\\Database&#45;&gt;\\Neuron\\Log\\Destination\\DestinationBase -->
<g id="edge10" class="edge"><title>\\Neuron\\Log\\Destination\\Database&#45;&gt;\\Neuron\\Log\\Destination\\DestinationBase</title>
<path fill="none" stroke="black" d="M250.079,-796.315C241.969,-792.506 233.397,-788.269 225.617,-784 193.398,-766.322 158.275,-743.663 133.131,-726.808"/>
<polygon fill="none" stroke="black" points="134.922,-723.794 124.674,-721.106 131.009,-729.598 134.922,-723.794"/>
</g>
<!-- \\Neuron\\Log\\Destination\\File -->
<g id="node14" class="node"><title>\\Neuron\\Log\\Destination\\File</title>
<polygon fill="none" stroke="black" points="311.524,-775 257.524,-775 257.524,-739 311.524,-739 311.524,-775"/>
<text text-anchor="middle" x="284.524" y="-753.7" font-family="Courier,monospace" font-size="11.00">File</text>
</g>
<!-- \\Neuron\\Log\\Destination\\File&#45;&gt;\\Neuron\\Log\\Destination\\DestinationBase -->
<g id="edge11" class="edge"><title>\\Neuron\\Log\\Destination\\File&#45;&gt;\\Neuron\\Log\\Destination\\DestinationBase</title>
<path fill="none" stroke="black" d="M257.408,-749.378C233.487,-742.396 197.046,-731.76 165.094,-722.434"/>
<polygon fill="none" stroke="black" points="165.921,-719.029 155.34,-719.587 163.959,-725.749 165.921,-719.029"/>
</g>
<!-- \\Neuron\\Log\\Destination\\Null -->
<g id="node15" class="node"><title>\\Neuron\\Log\\Destination\\Null</title>
<polygon fill="none" stroke="black" points="311.524,-721 257.524,-721 257.524,-685 311.524,-685 311.524,-721"/>
<text text-anchor="middle" x="284.524" y="-699.7" font-family="Courier,monospace" font-size="11.00">Null</text>
</g>
<!-- \\Neuron\\Log\\Destination\\Null&#45;&gt;\\Neuron\\Log\\Destination\\DestinationBase -->
<g id="edge12" class="edge"><title>\\Neuron\\Log\\Destination\\Null&#45;&gt;\\Neuron\\Log\\Destination\\DestinationBase</title>
<path fill="none" stroke="black" d="M257.408,-703C233.59,-703 197.36,-703 165.507,-703"/>
<polygon fill="none" stroke="black" points="165.34,-699.5 155.34,-703 165.34,-706.5 165.34,-699.5"/>
</g>
<!-- \\Neuron\\Log\\Destination\\StdErr -->
<g id="node16" class="node"><title>\\Neuron\\Log\\Destination\\StdErr</title>
<polygon fill="none" stroke="black" points="312.132,-667 256.916,-667 256.916,-631 312.132,-631 312.132,-667"/>
<text text-anchor="middle" x="284.524" y="-645.7" font-family="Courier,monospace" font-size="11.00">StdErr</text>
</g>
<!-- \\Neuron\\Log\\Destination\\StdErr&#45;&gt;\\Neuron\\Log\\Destination\\DestinationBase -->
<g id="edge13" class="edge"><title>\\Neuron\\Log\\Destination\\StdErr&#45;&gt;\\Neuron\\Log\\Destination\\DestinationBase</title>
<path fill="none" stroke="black" d="M256.621,-656.852C232.643,-663.85 196.549,-674.385 164.899,-683.623"/>
<polygon fill="none" stroke="black" points="163.856,-680.281 155.237,-686.443 165.817,-687.001 163.856,-680.281"/>
</g>
<!-- \\Neuron\\Log\\Destination\\StdOut -->
<g id="node17" class="node"><title>\\Neuron\\Log\\Destination\\StdOut</title>
<polygon fill="none" stroke="black" points="312.132,-613 256.916,-613 256.916,-577 312.132,-577 312.132,-613"/>
<text text-anchor="middle" x="284.524" y="-591.7" font-family="Courier,monospace" font-size="11.00">StdOut</text>
</g>
<!-- \\Neuron\\Log\\Destination\\StdOut&#45;&gt;\\Neuron\\Log\\Destination\\DestinationBase -->
<g id="edge14" class="edge"><title>\\Neuron\\Log\\Destination\\StdOut&#45;&gt;\\Neuron\\Log\\Destination\\DestinationBase</title>
<path fill="none" stroke="black" d="M256.639,-606.648C246.744,-611.166 235.536,-616.558 225.617,-622 193.398,-639.678 158.275,-662.337 133.131,-679.192"/>
<polygon fill="none" stroke="black" points="131.009,-676.402 124.674,-684.894 134.922,-682.206 131.009,-676.402"/>
</g>
<!-- \\Neuron\\Log\\Format\\CSV -->
<g id="node18" class="node"><title>\\Neuron\\Log\\Format\\CSV</title>
<polygon fill="none" stroke="black" points="311.524,-534 257.524,-534 257.524,-498 311.524,-498 311.524,-534"/>
<text text-anchor="middle" x="284.524" y="-512.7" font-family="Courier,monospace" font-size="11.00">CSV</text>
</g>
<!-- \\Neuron\\Log\\Format\\IFormat -->
<g id="node21" class="node"><title>\\Neuron\\Log\\Format\\IFormat</title>
<polygon fill="none" stroke="black" points="128.716,-480 66.3002,-480 66.3002,-444 128.716,-444 128.716,-480"/>
<text text-anchor="middle" x="97.5081" y="-458.7" font-family="Courier,monospace" font-size="11.00">IFormat</text>
</g>
<!-- \\Neuron\\Log\\Format\\CSV&#45;&gt;\\Neuron\\Log\\Format\\IFormat -->
<g id="edge15" class="edge"><title>\\Neuron\\Log\\Format\\CSV&#45;&gt;\\Neuron\\Log\\Format\\IFormat</title>
<path fill="none" stroke="black" stroke-dasharray="1,5" d="M257.408,-508.378C226.452,-499.342 174.53,-484.188 138.501,-473.673"/>
<polygon fill="none" stroke="black" points="139.371,-470.281 128.791,-470.839 137.41,-477 139.371,-470.281"/>
</g>
<!-- \\Neuron\\Log\\Format\\HTML -->
<g id="node19" class="node"><title>\\Neuron\\Log\\Format\\HTML</title>
<polygon fill="none" stroke="black" points="311.524,-480 257.524,-480 257.524,-444 311.524,-444 311.524,-480"/>
<text text-anchor="middle" x="284.524" y="-458.7" font-family="Courier,monospace" font-size="11.00">HTML</text>
</g>
<!-- \\Neuron\\Log\\Format\\HTML&#45;&gt;\\Neuron\\Log\\Format\\IFormat -->
<g id="edge16" class="edge"><title>\\Neuron\\Log\\Format\\HTML&#45;&gt;\\Neuron\\Log\\Format\\IFormat</title>
<path fill="none" stroke="black" stroke-dasharray="1,5" d="M257.408,-462C226.584,-462 174.974,-462 138.964,-462"/>
<polygon fill="none" stroke="black" points="138.791,-458.5 128.791,-462 138.791,-465.5 138.791,-458.5"/>
</g>
<!-- \\Neuron\\Log\\Format\\PlainText -->
<g id="node20" class="node"><title>\\Neuron\\Log\\Format\\PlainText</title>
<polygon fill="none" stroke="black" points="322.435,-426 246.613,-426 246.613,-390 322.435,-390 322.435,-426"/>
<text text-anchor="middle" x="284.524" y="-404.7" font-family="Courier,monospace" font-size="11.00">PlainText</text>
</g>
<!-- \\Neuron\\Log\\Format\\PlainText&#45;&gt;\\Neuron\\Log\\Format\\IFormat -->
<g id="edge17" class="edge"><title>\\Neuron\\Log\\Format\\PlainText&#45;&gt;\\Neuron\\Log\\Format\\IFormat</title>
<path fill="none" stroke="black" stroke-dasharray="1,5" d="M246.528,-418.798C215.317,-427.907 170.728,-440.921 138.657,-450.282"/>
<polygon fill="none" stroke="black" points="137.336,-447.021 128.717,-453.183 139.297,-453.741 137.336,-447.021"/>
</g>
<!-- \\Neuron\\Log\\Data -->
<g id="node22" class="node"><title>\\Neuron\\Log\\Data</title>
<polygon fill="none" stroke="black" points="311.524,-372 257.524,-372 257.524,-336 311.524,-336 311.524,-372"/>
<text text-anchor="middle" x="284.524" y="-350.7" font-family="Courier,monospace" font-size="11.00">Data</text>
</g>
<!-- \\Neuron\\Log\\LoggableBase -->
<g id="node23" class="node"><title>\\Neuron\\Log\\LoggableBase</title>
<polygon fill="none" stroke="black" points="332.237,-318 236.811,-318 236.811,-282 332.237,-282 332.237,-318"/>
<text text-anchor="middle" x="284.524" y="-296.7" font-family="Courier,monospace" font-size="11.00">LoggableBase</text>
</g>
<!-- \\Neuron\\Log\\ILogger -->
<g id="node25" class="node"><title>\\Neuron\\Log\\ILogger</title>
<polygon fill="none" stroke="black" points="128.716,-264 66.3002,-264 66.3002,-228 128.716,-228 128.716,-264"/>
<text text-anchor="middle" x="97.5081" y="-242.7" font-family="Courier,monospace" font-size="11.00">ILogger</text>
</g>
<!-- \\Neuron\\Log\\LoggableBase&#45;&gt;\\Neuron\\Log\\ILogger -->
<g id="edge18" class="edge"><title>\\Neuron\\Log\\LoggableBase&#45;&gt;\\Neuron\\Log\\ILogger</title>
<path fill="none" stroke="black" stroke-dasharray="1,5" d="M236.837,-286.374C206.481,-277.514 167.319,-266.084 138.416,-257.648"/>
<polygon fill="none" stroke="black" points="139.232,-254.24 128.652,-254.798 137.271,-260.96 139.232,-254.24"/>
</g>
<!-- \\Neuron\\Log\\Logger -->
<g id="node24" class="node"><title>\\Neuron\\Log\\Logger</title>
<polygon fill="none" stroke="black" points="312.132,-264 256.916,-264 256.916,-228 312.132,-228 312.132,-264"/>
<text text-anchor="middle" x="284.524" y="-242.7" font-family="Courier,monospace" font-size="11.00">Logger</text>
</g>
<!-- \\Neuron\\Log\\Logger&#45;&gt;\\Neuron\\Log\\ILogger -->
<g id="edge19" class="edge"><title>\\Neuron\\Log\\Logger&#45;&gt;\\Neuron\\Log\\ILogger</title>
<path fill="none" stroke="black" stroke-dasharray="1,5" d="M256.621,-246C225.698,-246 174.626,-246 138.918,-246"/>
<polygon fill="none" stroke="black" points="138.828,-242.5 128.827,-246 138.827,-249.5 138.828,-242.5"/>
</g>
<!-- \\Neuron\\Parser\\CSV -->
<g id="node26" class="node"><title>\\Neuron\\Parser\\CSV</title>
<polygon fill="none" stroke="black" points="311.524,-1363 257.524,-1363 257.524,-1327 311.524,-1327 311.524,-1363"/>
<text text-anchor="middle" x="284.524" y="-1341.7" font-family="Courier,monospace" font-size="11.00">CSV</text>
</g>
<!-- \\Neuron\\Parser\\IParser -->
<g id="node28" class="node"><title>\\Neuron\\Parser\\IParser</title>
<polygon fill="none" stroke="black" points="128.716,-1336 66.3002,-1336 66.3002,-1300 128.716,-1300 128.716,-1336"/>
<text text-anchor="middle" x="97.5081" y="-1314.7" font-family="Courier,monospace" font-size="11.00">IParser</text>
</g>
<!-- \\Neuron\\Parser\\CSV&#45;&gt;\\Neuron\\Parser\\IParser -->
<g id="edge20" class="edge"><title>\\Neuron\\Parser\\CSV&#45;&gt;\\Neuron\\Parser\\IParser</title>
<path fill="none" stroke="black" stroke-dasharray="1,5" d="M257.408,-1341.19C226.584,-1336.69 174.974,-1329.16 138.964,-1323.9"/>
<polygon fill="none" stroke="black" points="139.192,-1320.4 128.791,-1322.42 138.181,-1327.33 139.192,-1320.4"/>
</g>
<!-- \\Neuron\\Parser\\Positional -->
<g id="node27" class="node"><title>\\Neuron\\Parser\\Positional</title>
<polygon fill="none" stroke="black" points="325.535,-1309 243.513,-1309 243.513,-1273 325.535,-1273 325.535,-1309"/>
<text text-anchor="middle" x="284.524" y="-1287.7" font-family="Courier,monospace" font-size="11.00">Positional</text>
</g>
<!-- \\Neuron\\Parser\\Positional&#45;&gt;\\Neuron\\Parser\\IParser -->
<g id="edge21" class="edge"><title>\\Neuron\\Parser\\Positional&#45;&gt;\\Neuron\\Parser\\IParser</title>
<path fill="none" stroke="black" stroke-dasharray="1,5" d="M243.378,-1296.86C212.441,-1301.37 169.854,-1307.59 138.865,-1312.11"/>
<polygon fill="none" stroke="black" points="138.223,-1308.67 128.833,-1313.57 139.234,-1315.59 138.223,-1308.67"/>
</g>
<!-- \\Neuron\\Util\\Date -->
<g id="node29" class="node"><title>\\Neuron\\Util\\Date</title>
<polygon fill="none" stroke="black" points="311.524,-1043 257.524,-1043 257.524,-1007 311.524,-1007 311.524,-1043"/>
<text text-anchor="middle" x="284.524" y="-1021.7" font-family="Courier,monospace" font-size="11.00">Date</text>
</g>
<!-- \\Neuron\\Util\\Email -->
<g id="node30" class="node"><title>\\Neuron\\Util\\Email</title>
<polygon fill="none" stroke="black" points="311.524,-989 257.524,-989 257.524,-953 311.524,-953 311.524,-989"/>
<text text-anchor="middle" x="284.524" y="-967.7" font-family="Courier,monospace" font-size="11.00">Email</text>
</g>
<!-- \\Neuron\\Util\\System -->
<g id="node31" class="node"><title>\\Neuron\\Util\\System</title>
<polygon fill="none" stroke="black" points="312.132,-935 256.916,-935 256.916,-899 312.132,-899 312.132,-935"/>
<text text-anchor="middle" x="284.524" y="-913.7" font-family="Courier,monospace" font-size="11.00">System</text>
</g>
<!-- \\Neuron\\ApplicationBase -->
<g id="node32" class="node"><title>\\Neuron\\ApplicationBase</title>
<polygon fill="none" stroke="black" points="342.04,-210 227.008,-210 227.008,-174 342.04,-174 342.04,-210"/>
<text text-anchor="start" x="251.519" y="-194.2" font-family="Courier,monospace" font-size="11.00">«abstract»</text>
<text text-anchor="start" x="235.016" y="-183.2" font-family="Courier,monospace" font-size="11.00">ApplicationBase</text>
</g>
<!-- \\Neuron\\ApplicationBase&#45;&gt;\\Neuron\\Log\\ILogger -->
<g id="edge1" class="edge"><title>\\Neuron\\ApplicationBase&#45;&gt;\\Neuron\\Log\\ILogger</title>
<path fill="none" stroke="black" stroke-dasharray="1,5" d="M227.008,-208.495C198.394,-216.847 164.337,-226.787 138.476,-234.335"/>
<polygon fill="none" stroke="black" points="137.261,-231.043 128.643,-237.205 139.223,-237.763 137.261,-231.043"/>
</g>
<!-- \\Synapse\\Util\\Template -->
<g id="node33" class="node"><title>\\Synapse\\Util\\Template</title>
<polygon fill="none" stroke="black" points="318.833,-104 250.215,-104 250.215,-68 318.833,-68 318.833,-104"/>
<text text-anchor="middle" x="284.524" y="-82.7" font-family="Courier,monospace" font-size="11.00">Template</text>
</g>
</g>
</svg>
