<?xml version="1.0" encoding="UTF-8" standalone="no"?>
<!DOCTYPE svg PUBLIC "-//W3C//DTD SVG 1.1//EN"
 "http://www.w3.org/Graphics/SVG/1.1/DTD/svg11.dtd">
<!-- Generated by graphviz version 2.38.0 (20140413.2041)
 -->
<!-- Title: G Pages: 1 -->
<svg width="700pt" height="1742pt"
 viewBox="0.00 0.00 699.64 1742.00" xmlns="http://www.w3.org/2000/svg" xmlns:xlink="http://www.w3.org/1999/xlink">
<g id="graph0" class="graph" transform="scale(1 1) rotate(0) translate(4 1738)">
<title>G</title>
<polygon fill="white" stroke="none" points="-4,4 -4,-1738 695.639,-1738 695.639,4 -4,4"/>
<g id="clust1" class="cluster"><title>cluster_Global</title>
<path fill="none" stroke="gray" d="M20,-8C20,-8 671.639,-8 671.639,-8 677.639,-8 683.639,-14 683.639,-20 683.639,-20 683.639,-1714 683.639,-1714 683.639,-1720 677.639,-1726 671.639,-1726 671.639,-1726 20,-1726 20,-1726 14,-1726 8,-1720 8,-1714 8,-1714 8,-20 8,-20 8,-14 14,-8 20,-8"/>
<text text-anchor="middle" x="345.819" y="-1713.2" font-family="Times,serif" font-size="11.00" fill="gray">\</text>
</g>
<g id="clust2" class="cluster"><title>cluster_\Neuron</title>
<path fill="none" stroke="gray" d="M28,-16C28,-16 663.639,-16 663.639,-16 669.639,-16 675.639,-22 675.639,-28 675.639,-28 675.639,-1687 675.639,-1687 675.639,-1693 669.639,-1699 663.639,-1699 663.639,-1699 28,-1699 28,-1699 22,-1699 16,-1693 16,-1687 16,-1687 16,-28 16,-28 16,-22 22,-16 28,-16"/>
<text text-anchor="middle" x="345.819" y="-1686.2" font-family="Times,serif" font-size="11.00" fill="gray">Neuron</text>
</g>
<g id="clust3" class="cluster"><title>cluster_\Neuron\Data</title>
<path fill="none" stroke="gray" d="M205.565,-1063C205.565,-1063 634.371,-1063 634.371,-1063 640.371,-1063 646.371,-1069 646.371,-1075 646.371,-1075 646.371,-1660 646.371,-1660 646.371,-1666 640.371,-1672 634.371,-1672 634.371,-1672 205.565,-1672 205.565,-1672 199.565,-1672 193.565,-1666 193.565,-1660 193.565,-1660 193.565,-1075 193.565,-1075 193.565,-1069 199.565,-1063 205.565,-1063"/>
<text text-anchor="middle" x="419.968" y="-1659.2" font-family="Times,serif" font-size="11.00" fill="gray">Data</text>
</g>
<g id="clust4" class="cluster"><title>cluster_\Neuron\Data\Filter</title>
<path fill="none" stroke="gray" d="M566.986,-1574C566.986,-1574 612.986,-1574 612.986,-1574 618.986,-1574 624.986,-1580 624.986,-1586 624.986,-1586 624.986,-1633 624.986,-1633 624.986,-1639 618.986,-1645 612.986,-1645 612.986,-1645 566.986,-1645 566.986,-1645 560.986,-1645 554.986,-1639 554.986,-1633 554.986,-1633 554.986,-1586 554.986,-1586 554.986,-1580 560.986,-1574 566.986,-1574"/>
<text text-anchor="middle" x="589.986" y="-1632.2" font-family="Times,serif" font-size="11.00" fill="gray">Filter</text>
</g>
<g id="clust5" class="cluster"><title>cluster_\Neuron\Data\Validation</title>
<path fill="none" stroke="gray" d="M213.565,-1117C213.565,-1117 626.371,-1117 626.371,-1117 632.371,-1117 638.371,-1123 638.371,-1129 638.371,-1129 638.371,-1554 638.371,-1554 638.371,-1560 632.371,-1566 626.371,-1566 626.371,-1566 213.565,-1566 213.565,-1566 207.565,-1566 201.565,-1560 201.565,-1554 201.565,-1554 201.565,-1129 201.565,-1129 201.565,-1123 207.565,-1117 213.565,-1117"/>
<text text-anchor="middle" x="419.968" y="-1553.2" font-family="Times,serif" font-size="11.00" fill="gray">Validation</text>
</g>
<g id="clust6" class="cluster"><title>cluster_\Neuron\H</title>
<path fill="none" stroke="gray" d="M566.986,-974C566.986,-974 612.986,-974 612.986,-974 618.986,-974 624.986,-980 624.986,-986 624.986,-986 624.986,-1033 624.986,-1033 624.986,-1039 618.986,-1045 612.986,-1045 612.986,-1045 566.986,-1045 566.986,-1045 560.986,-1045 554.986,-1039 554.986,-1033 554.986,-1033 554.986,-986 554.986,-986 554.986,-980 560.986,-974 566.986,-974"/>
<text text-anchor="middle" x="589.986" y="-1032.2" font-family="Times,serif" font-size="11.00" fill="gray">H</text>
</g>
<g id="clust7" class="cluster"><title>cluster_\Neuron\Log</title>
<path fill="none" stroke="gray" d="M36,-24C36,-24 277.994,-24 277.994,-24 283.994,-24 289.994,-30 289.994,-36 289.994,-36 289.994,-999 289.994,-999 289.994,-1005 283.994,-1011 277.994,-1011 277.994,-1011 36,-1011 36,-1011 30,-1011 24,-1005 24,-999 24,-999 24,-36 24,-36 24,-30 30,-24 36,-24"/>
<text text-anchor="middle" x="156.997" y="-998.2" font-family="Times,serif" font-size="11.00" fill="gray">Log</text>
</g>
<g id="clust8" class="cluster"><title>cluster_\Neuron\Log\Destination</title>
<path fill="none" stroke="gray" d="M44,-481C44,-481 269.994,-481 269.994,-481 275.994,-481 281.994,-487 281.994,-493 281.994,-493 281.994,-972 281.994,-972 281.994,-978 275.994,-984 269.994,-984 269.994,-984 44,-984 44,-984 38,-984 32,-978 32,-972 32,-972 32,-493 32,-493 32,-487 38,-481 44,-481"/>
<text text-anchor="middle" x="156.997" y="-971.2" font-family="Times,serif" font-size="11.00" fill="gray">Destination</text>
</g>
<g id="clust9" class="cluster"><title>cluster_\Neuron\Log\Format</title>
<path fill="none" stroke="gray" d="M61.0481,-240C61.0481,-240 264.558,-240 264.558,-240 270.558,-240 276.558,-246 276.558,-252 276.558,-252 276.558,-461 276.558,-461 276.558,-467 270.558,-473 264.558,-473 264.558,-473 61.0481,-473 61.0481,-473 55.0481,-473 49.0481,-467 49.0481,-461 49.0481,-461 49.0481,-252 49.0481,-252 49.0481,-246 55.0481,-240 61.0481,-240"/>
<text text-anchor="middle" x="162.803" y="-460.2" font-family="Times,serif" font-size="11.00" fill="gray">Format</text>
</g>
<g id="clust10" class="cluster"><title>cluster_\Neuron\Parser</title>
<path fill="none" stroke="gray" d="M372.676,-767C372.676,-767 620.264,-767 620.264,-767 626.264,-767 632.264,-773 632.264,-779 632.264,-779 632.264,-934 632.264,-934 632.264,-940 626.264,-946 620.264,-946 620.264,-946 372.676,-946 372.676,-946 366.676,-946 360.676,-940 360.676,-934 360.676,-934 360.676,-779 360.676,-779 360.676,-773 366.676,-767 372.676,-767"/>
<text text-anchor="middle" x="496.47" y="-933.2" font-family="Times,serif" font-size="11.00" fill="gray">Parser</text>
</g>
<g id="clust11" class="cluster"><title>cluster_\Neuron\Setting</title>
<path fill="none" stroke="gray" d="M350.988,-567C350.988,-567 629.116,-567 629.116,-567 635.116,-567 641.116,-573 641.116,-579 641.116,-579 641.116,-707 641.116,-707 641.116,-713 635.116,-719 629.116,-719 629.116,-719 350.988,-719 350.988,-719 344.988,-719 338.988,-713 338.988,-707 338.988,-707 338.988,-579 338.988,-579 338.988,-573 344.988,-567 350.988,-567"/>
<text text-anchor="middle" x="490.052" y="-706.2" font-family="Times,serif" font-size="11.00" fill="gray">Setting</text>
</g>
<g id="clust12" class="cluster"><title>cluster_\Neuron\Setting\Source</title>
<path fill="none" stroke="gray" d="M358.988,-621C358.988,-621 612.986,-621 612.986,-621 618.986,-621 624.986,-627 624.986,-633 624.986,-633 624.986,-680 624.986,-680 624.986,-686 618.986,-692 612.986,-692 612.986,-692 358.988,-692 358.988,-692 352.988,-692 346.988,-686 346.988,-680 346.988,-680 346.988,-633 346.988,-633 346.988,-627 352.988,-621 358.988,-621"/>
<text text-anchor="middle" x="485.987" y="-679.2" font-family="Times,serif" font-size="11.00" fill="gray">Source</text>
</g>
<g id="clust13" class="cluster"><title>cluster_\Neuron\Util</title>
<path fill="none" stroke="gray" d="M565.603,-247C565.603,-247 614.37,-247 614.37,-247 620.37,-247 626.37,-253 626.37,-259 626.37,-259 626.37,-468 626.37,-468 626.37,-474 620.37,-480 614.37,-480 614.37,-480 565.603,-480 565.603,-480 559.603,-480 553.603,-474 553.603,-468 553.603,-468 553.603,-259 553.603,-259 553.603,-253 559.603,-247 565.603,-247"/>
<text text-anchor="middle" x="589.986" y="-467.2" font-family="Times,serif" font-size="11.00" fill="gray">Util</text>
</g>
<!-- \\Neuron\\Data\\Filter\\IFilter -->
<g id="node1" class="node"><title>\\Neuron\\Data\\Filter\\IFilter</title>
<polygon fill="none" stroke="black" points="616.986,-1618 562.986,-1618 562.986,-1582 616.986,-1582 616.986,-1618"/>
<text text-anchor="middle" x="589.986" y="-1596.7" font-family="Times,serif" font-size="11.00">IFilter</text>
</g>
<!-- \\Neuron\\Data\\Validation\\Date -->
<g id="node2" class="node"><title>\\Neuron\\Data\\Validation\\Date</title>
<polygon fill="none" stroke="black" points="616.986,-1539 562.986,-1539 562.986,-1503 616.986,-1503 616.986,-1539"/>
<text text-anchor="middle" x="589.986" y="-1517.7" font-family="Times,serif" font-size="11.00">Date</text>
</g>
<!-- \\Neuron\\Data\\Validation\\ValidatorBase -->
<g id="node10" class="node"><title>\\Neuron\\Data\\Validation\\ValidatorBase</title>
<polygon fill="none" stroke="black" points="434.38,-1377 356.973,-1377 356.973,-1341 434.38,-1341 434.38,-1377"/>
<text text-anchor="start" x="373.075" y="-1361.2" font-family="Times,serif" font-size="11.00">«abstract»</text>
<text text-anchor="start" x="364.825" y="-1350.2" font-family="Times,serif" font-size="11.00">ValidatorBase</text>
</g>
<!-- \\Neuron\\Data\\Validation\\Date&#45;&gt;\\Neuron\\Data\\Validation\\ValidatorBase -->
<g id="edge4" class="edge"><title>\\Neuron\\Data\\Validation\\Date&#45;&gt;\\Neuron\\Data\\Validation\\ValidatorBase</title>
<path fill="none" stroke="black" d="M562.914,-1515.45C547.297,-1511.27 527.583,-1504.44 512.334,-1494 469.875,-1464.92 433.658,-1416.44 413.565,-1386.18"/>
<polygon fill="none" stroke="black" points="416.247,-1383.89 407.858,-1377.41 410.381,-1387.7 416.247,-1383.89"/>
</g>
<!-- \\Neuron\\Data\\Validation\\Email -->
<g id="node3" class="node"><title>\\Neuron\\Data\\Validation\\Email</title>
<polygon fill="none" stroke="black" points="616.986,-1485 562.986,-1485 562.986,-1449 616.986,-1449 616.986,-1485"/>
<text text-anchor="middle" x="589.986" y="-1463.7" font-family="Times,serif" font-size="11.00">Email</text>
</g>
<!-- \\Neuron\\Data\\Validation\\Email&#45;&gt;\\Neuron\\Data\\Validation\\ValidatorBase -->
<g id="edge5" class="edge"><title>\\Neuron\\Data\\Validation\\Email&#45;&gt;\\Neuron\\Data\\Validation\\ValidatorBase</title>
<path fill="none" stroke="black" d="M562.707,-1459.69C547.559,-1455.01 528.396,-1448.26 512.334,-1440 481.402,-1424.1 449.232,-1400.95 426.697,-1383.46"/>
<polygon fill="none" stroke="black" points="428.58,-1380.49 418.555,-1377.06 424.256,-1385.99 428.58,-1380.49"/>
</g>
<!-- \\Neuron\\Data\\Validation\\Float -->
<g id="node4" class="node"><title>\\Neuron\\Data\\Validation\\Float</title>
<polygon fill="none" stroke="black" points="616.986,-1431 562.986,-1431 562.986,-1395 616.986,-1395 616.986,-1431"/>
<text text-anchor="middle" x="589.986" y="-1409.7" font-family="Times,serif" font-size="11.00">Float</text>
</g>
<!-- \\Neuron\\Data\\Validation\\Float&#45;&gt;\\Neuron\\Data\\Validation\\ValidatorBase -->
<g id="edge6" class="edge"><title>\\Neuron\\Data\\Validation\\Float&#45;&gt;\\Neuron\\Data\\Validation\\ValidatorBase</title>
<path fill="none" stroke="black" d="M562.65,-1405.6C532.243,-1397.07 481.627,-1382.85 444.27,-1372.36"/>
<polygon fill="none" stroke="black" points="445.171,-1368.98 434.597,-1369.65 443.278,-1375.72 445.171,-1368.98"/>
</g>
<!-- \\Neuron\\Data\\Validation\\Integer -->
<g id="node5" class="node"><title>\\Neuron\\Data\\Validation\\Integer</title>
<polygon fill="none" stroke="black" points="616.986,-1377 562.986,-1377 562.986,-1341 616.986,-1341 616.986,-1377"/>
<text text-anchor="middle" x="589.986" y="-1355.7" font-family="Times,serif" font-size="11.00">Integer</text>
</g>
<!-- \\Neuron\\Data\\Validation\\Integer&#45;&gt;\\Neuron\\Data\\Validation\\ValidatorBase -->
<g id="edge7" class="edge"><title>\\Neuron\\Data\\Validation\\Integer&#45;&gt;\\Neuron\\Data\\Validation\\ValidatorBase</title>
<path fill="none" stroke="black" d="M562.65,-1359C532.372,-1359 482.057,-1359 444.748,-1359"/>
<polygon fill="none" stroke="black" points="444.597,-1355.5 434.597,-1359 444.597,-1362.5 444.597,-1355.5"/>
</g>
<!-- \\Neuron\\Data\\Validation\\IPAddress -->
<g id="node6" class="node"><title>\\Neuron\\Data\\Validation\\IPAddress</title>
<polygon fill="none" stroke="black" points="620.308,-1323 559.664,-1323 559.664,-1287 620.308,-1287 620.308,-1323"/>
<text text-anchor="middle" x="589.986" y="-1301.7" font-family="Times,serif" font-size="11.00">IPAddress</text>
</g>
<!-- \\Neuron\\Data\\Validation\\IPAddress&#45;&gt;\\Neuron\\Data\\Validation\\ValidatorBase -->
<g id="edge8" class="edge"><title>\\Neuron\\Data\\Validation\\IPAddress&#45;&gt;\\Neuron\\Data\\Validation\\ValidatorBase</title>
<path fill="none" stroke="black" d="M559.359,-1313.32C528.734,-1321.92 480.448,-1335.48 444.425,-1345.59"/>
<polygon fill="none" stroke="black" points="443.296,-1342.27 434.615,-1348.35 445.189,-1349.01 443.296,-1342.27"/>
</g>
<!-- \\Neuron\\Data\\Validation\\MultiValidator -->
<g id="node7" class="node"><title>\\Neuron\\Data\\Validation\\MultiValidator</title>
<polygon fill="none" stroke="black" points="630.257,-1269 549.716,-1269 549.716,-1233 630.257,-1233 630.257,-1269"/>
<text text-anchor="middle" x="589.986" y="-1247.7" font-family="Times,serif" font-size="11.00">MultiValidator</text>
</g>
<!-- \\Neuron\\Data\\Validation\\String -->
<g id="node8" class="node"><title>\\Neuron\\Data\\Validation\\String</title>
<polygon fill="none" stroke="black" points="616.986,-1215 562.986,-1215 562.986,-1179 616.986,-1179 616.986,-1215"/>
<text text-anchor="middle" x="589.986" y="-1193.7" font-family="Times,serif" font-size="11.00">String</text>
</g>
<!-- \\Neuron\\Data\\Validation\\String&#45;&gt;\\Neuron\\Data\\Validation\\ValidatorBase -->
<g id="edge9" class="edge"><title>\\Neuron\\Data\\Validation\\String&#45;&gt;\\Neuron\\Data\\Validation\\ValidatorBase</title>
<path fill="none" stroke="black" d="M562.914,-1202.55C547.297,-1206.73 527.583,-1213.56 512.334,-1224 469.875,-1253.08 433.658,-1301.56 413.565,-1331.82"/>
<polygon fill="none" stroke="black" points="410.381,-1330.3 407.858,-1340.59 416.247,-1334.11 410.381,-1330.3"/>
</g>
<!-- \\Neuron\\Data\\Validation\\Url -->
<g id="node9" class="node"><title>\\Neuron\\Data\\Validation\\Url</title>
<polygon fill="none" stroke="black" points="616.986,-1161 562.986,-1161 562.986,-1125 616.986,-1125 616.986,-1161"/>
<text text-anchor="middle" x="589.986" y="-1139.7" font-family="Times,serif" font-size="11.00">Url</text>
</g>
<!-- \\Neuron\\Data\\Validation\\Url&#45;&gt;\\Neuron\\Data\\Validation\\ValidatorBase -->
<g id="edge10" class="edge"><title>\\Neuron\\Data\\Validation\\Url&#45;&gt;\\Neuron\\Data\\Validation\\ValidatorBase</title>
<path fill="none" stroke="black" d="M562.648,-1147.62C546.741,-1151.47 526.814,-1158.29 512.334,-1170 458.04,-1213.92 422.59,-1290.59 406.56,-1331.48"/>
<polygon fill="none" stroke="black" points="403.289,-1330.23 402.991,-1340.82 409.828,-1332.73 403.289,-1330.23"/>
</g>
<!-- \\Neuron\\Data\\Validation\\IValidator -->
<g id="node11" class="node"><title>\\Neuron\\Data\\Validation\\IValidator</title>
<polygon fill="none" stroke="black" points="269.541,-1377 209.573,-1377 209.573,-1341 269.541,-1341 269.541,-1377"/>
<text text-anchor="middle" x="239.557" y="-1355.7" font-family="Times,serif" font-size="11.00">IValidator</text>
</g>
<!-- \\Neuron\\Data\\Validation\\ValidatorBase&#45;&gt;\\Neuron\\Data\\Validation\\IValidator -->
<g id="edge11" class="edge"><title>\\Neuron\\Data\\Validation\\ValidatorBase&#45;&gt;\\Neuron\\Data\\Validation\\IValidator</title>
<path fill="none" stroke="black" stroke-dasharray="1,5" d="M356.579,-1359C333.285,-1359 303.544,-1359 280.006,-1359"/>
<polygon fill="none" stroke="black" points="280.005,-1355.5 270.005,-1359 280.005,-1362.5 280.005,-1355.5"/>
</g>
<!-- \\Neuron\\Data\\Processor -->
<g id="node12" class="node"><title>\\Neuron\\Data\\Processor</title>
<polygon fill="none" stroke="black" points="619.257,-1107 560.716,-1107 560.716,-1071 619.257,-1071 619.257,-1107"/>
<text text-anchor="middle" x="589.986" y="-1085.7" font-family="Times,serif" font-size="11.00">Processor</text>
</g>
<!-- \\Neuron\\H\\Error -->
<g id="node13" class="node"><title>\\Neuron\\H\\Error</title>
<polygon fill="none" stroke="black" points="616.986,-1018 562.986,-1018 562.986,-982 616.986,-982 616.986,-1018"/>
<text text-anchor="middle" x="589.986" y="-996.7" font-family="Times,serif" font-size="11.00">Error</text>
</g>
<!-- \\Neuron\\Log\\Destination\\DestinationBase -->
<g id="node14" class="node"><title>\\Neuron\\Log\\Destination\\DestinationBase</title>
<polygon fill="none" stroke="black" points="128.144,-714 39.9519,-714 39.9519,-678 128.144,-678 128.144,-714"/>
<text text-anchor="start" x="61.4465" y="-698.2" font-family="Times,serif" font-size="11.00">«abstract»</text>
<text text-anchor="start" x="48" y="-687.2" font-family="Times,serif" font-size="11.00">DestinationBase</text>
</g>
<!-- \\Neuron\\Log\\Destination\\Echoer -->
<g id="node15" class="node"><title>\\Neuron\\Log\\Destination\\Echoer</title>
<polygon fill="none" stroke="black" points="266.557,-795 212.557,-795 212.557,-759 266.557,-759 266.557,-795"/>
<text text-anchor="middle" x="239.557" y="-773.7" font-family="Times,serif" font-size="11.00">Echoer</text>
</g>
<!-- \\Neuron\\Log\\Destination\\Echoer&#45;&gt;\\Neuron\\Log\\Destination\\DestinationBase -->
<g id="edge12" class="edge"><title>\\Neuron\\Log\\Destination\\Echoer&#45;&gt;\\Neuron\\Log\\Destination\\DestinationBase</title>
<path fill="none" stroke="black" d="M212.517,-763.259C189.461,-751.094 155.354,-733.098 128.222,-718.781"/>
<polygon fill="none" stroke="black" points="129.791,-715.652 119.313,-714.08 126.524,-721.843 129.791,-715.652"/>
</g>
<!-- \\Neuron\\Log\\Destination\\Email -->
<g id="node16" class="node"><title>\\Neuron\\Log\\Destination\\Email</title>
<polygon fill="none" stroke="black" points="266.557,-903 212.557,-903 212.557,-867 266.557,-867 266.557,-903"/>
<text text-anchor="middle" x="239.557" y="-881.7" font-family="Times,serif" font-size="11.00">Email</text>
</g>
<!-- \\Neuron\\Log\\Destination\\File -->
<g id="node17" class="node"><title>\\Neuron\\Log\\Destination\\File</title>
<polygon fill="none" stroke="black" points="266.557,-741 212.557,-741 212.557,-705 266.557,-705 266.557,-741"/>
<text text-anchor="middle" x="239.557" y="-719.7" font-family="Times,serif" font-size="11.00">File</text>
</g>
<!-- \\Neuron\\Log\\Destination\\File&#45;&gt;\\Neuron\\Log\\Destination\\DestinationBase -->
<g id="edge13" class="edge"><title>\\Neuron\\Log\\Destination\\File&#45;&gt;\\Neuron\\Log\\Destination\\DestinationBase</title>
<path fill="none" stroke="black" d="M212.517,-718.42C192.293,-714.863 163.566,-709.81 138.502,-705.402"/>
<polygon fill="none" stroke="black" points="138.837,-701.907 128.382,-703.622 137.625,-708.801 138.837,-701.907"/>
</g>
<!-- \\Neuron\\Log\\Destination\\Null -->
<g id="node18" class="node"><title>\\Neuron\\Log\\Destination\\Null</title>
<polygon fill="none" stroke="black" points="266.557,-687 212.557,-687 212.557,-651 266.557,-651 266.557,-687"/>
<text text-anchor="middle" x="239.557" y="-665.7" font-family="Times,serif" font-size="11.00">Null</text>
</g>
<!-- \\Neuron\\Log\\Destination\\Null&#45;&gt;\\Neuron\\Log\\Destination\\DestinationBase -->
<g id="edge14" class="edge"><title>\\Neuron\\Log\\Destination\\Null&#45;&gt;\\Neuron\\Log\\Destination\\DestinationBase</title>
<path fill="none" stroke="black" d="M212.517,-673.58C192.293,-677.137 163.566,-682.19 138.502,-686.598"/>
<polygon fill="none" stroke="black" points="137.625,-683.199 128.382,-688.378 138.837,-690.093 137.625,-683.199"/>
</g>
<!-- \\Neuron\\Log\\Destination\\Slack -->
<g id="node19" class="node"><title>\\Neuron\\Log\\Destination\\Slack</title>
<polygon fill="none" stroke="black" points="266.557,-633 212.557,-633 212.557,-597 266.557,-597 266.557,-633"/>
<text text-anchor="middle" x="239.557" y="-611.7" font-family="Times,serif" font-size="11.00">Slack</text>
</g>
<!-- \\Neuron\\Log\\Destination\\Slack&#45;&gt;\\Neuron\\Log\\Destination\\DestinationBase -->
<g id="edge15" class="edge"><title>\\Neuron\\Log\\Destination\\Slack&#45;&gt;\\Neuron\\Log\\Destination\\DestinationBase</title>
<path fill="none" stroke="black" d="M212.517,-628.741C189.461,-640.906 155.354,-658.902 128.222,-673.219"/>
<polygon fill="none" stroke="black" points="126.524,-670.157 119.313,-677.92 129.791,-676.348 126.524,-670.157"/>
</g>
<!-- \\Neuron\\Log\\Destination\\Socket -->
<g id="node20" class="node"><title>\\Neuron\\Log\\Destination\\Socket</title>
<polygon fill="none" stroke="black" points="266.557,-579 212.557,-579 212.557,-543 266.557,-543 266.557,-579"/>
<text text-anchor="middle" x="239.557" y="-557.7" font-family="Times,serif" font-size="11.00">Socket</text>
</g>
<!-- \\Neuron\\Log\\Destination\\Socket&#45;&gt;\\Neuron\\Log\\Destination\\DestinationBase -->
<g id="edge16" class="edge"><title>\\Neuron\\Log\\Destination\\Socket&#45;&gt;\\Neuron\\Log\\Destination\\DestinationBase</title>
<path fill="none" stroke="black" d="M212.153,-575.388C205.865,-579.206 199.315,-583.522 193.565,-588 161.302,-613.131 128.622,-647.065 107.68,-670.143"/>
<polygon fill="none" stroke="black" points="104.861,-668.043 100.782,-677.821 110.069,-672.721 104.861,-668.043"/>
</g>
<!-- \\Neuron\\Log\\Destination\\StdErr -->
<g id="node21" class="node"><title>\\Neuron\\Log\\Destination\\StdErr</title>
<polygon fill="none" stroke="black" points="266.557,-525 212.557,-525 212.557,-489 266.557,-489 266.557,-525"/>
<text text-anchor="middle" x="239.557" y="-503.7" font-family="Times,serif" font-size="11.00">StdErr</text>
</g>
<!-- \\Neuron\\Log\\Destination\\StdErr&#45;&gt;\\Neuron\\Log\\Destination\\DestinationBase -->
<g id="edge17" class="edge"><title>\\Neuron\\Log\\Destination\\StdErr&#45;&gt;\\Neuron\\Log\\Destination\\DestinationBase</title>
<path fill="none" stroke="black" d="M212.426,-520.043C205.859,-524.005 199.109,-528.725 193.565,-534 151.085,-574.419 116.41,-634.307 98.426,-668.814"/>
<polygon fill="none" stroke="black" points="95.2484,-667.34 93.8035,-677.836 101.478,-670.532 95.2484,-667.34"/>
</g>
<!-- \\Neuron\\Log\\Destination\\StdOut -->
<g id="node22" class="node"><title>\\Neuron\\Log\\Destination\\StdOut</title>
<polygon fill="none" stroke="black" points="266.557,-957 212.557,-957 212.557,-921 266.557,-921 266.557,-957"/>
<text text-anchor="middle" x="239.557" y="-935.7" font-family="Times,serif" font-size="11.00">StdOut</text>
</g>
<!-- \\Neuron\\Log\\Destination\\StdOut&#45;&gt;\\Neuron\\Log\\Destination\\DestinationBase -->
<g id="edge18" class="edge"><title>\\Neuron\\Log\\Destination\\StdOut&#45;&gt;\\Neuron\\Log\\Destination\\DestinationBase</title>
<path fill="none" stroke="black" d="M212.436,-926.692C205.72,-922.675 198.894,-917.743 193.565,-912 140.982,-855.32 107.881,-768.354 93.4543,-724.047"/>
<polygon fill="none" stroke="black" points="96.7062,-722.723 90.3443,-714.251 90.0344,-724.841 96.7062,-722.723"/>
</g>
<!-- \\Neuron\\Log\\Destination\\WebService -->
<g id="node23" class="node"><title>\\Neuron\\Log\\Destination\\WebService</title>
<polygon fill="none" stroke="black" points="273.931,-849 205.184,-849 205.184,-813 273.931,-813 273.931,-849"/>
<text text-anchor="middle" x="239.557" y="-827.7" font-family="Times,serif" font-size="11.00">WebService</text>
</g>
<!-- \\Neuron\\Log\\Destination\\WebService&#45;&gt;\\Neuron\\Log\\Destination\\DestinationBase -->
<g id="edge19" class="edge"><title>\\Neuron\\Log\\Destination\\WebService&#45;&gt;\\Neuron\\Log\\Destination\\DestinationBase</title>
<path fill="none" stroke="black" d="M205.975,-812.744C201.692,-809.972 197.446,-807.023 193.565,-804 161.302,-778.869 128.622,-744.935 107.68,-721.857"/>
<polygon fill="none" stroke="black" points="110.069,-719.279 100.782,-714.179 104.861,-723.957 110.069,-719.279"/>
</g>
<!-- \\Neuron\\Log\\Format\\CSV -->
<g id="node24" class="node"><title>\\Neuron\\Log\\Format\\CSV</title>
<polygon fill="none" stroke="black" points="266.557,-446 212.557,-446 212.557,-410 266.557,-410 266.557,-446"/>
<text text-anchor="middle" x="239.557" y="-424.7" font-family="Times,serif" font-size="11.00">CSV</text>
</g>
<!-- \\Neuron\\Log\\Format\\IFormat -->
<g id="node28" class="node"><title>\\Neuron\\Log\\Format\\IFormat</title>
<polygon fill="none" stroke="black" points="111.048,-365 57.0481,-365 57.0481,-329 111.048,-329 111.048,-365"/>
<text text-anchor="middle" x="84.0481" y="-343.7" font-family="Times,serif" font-size="11.00">IFormat</text>
</g>
<!-- \\Neuron\\Log\\Format\\CSV&#45;&gt;\\Neuron\\Log\\Format\\IFormat -->
<g id="edge20" class="edge"><title>\\Neuron\\Log\\Format\\CSV&#45;&gt;\\Neuron\\Log\\Format\\IFormat</title>
<path fill="none" stroke="black" stroke-dasharray="1,5" d="M212.517,-414.259C187.155,-400.877 148.423,-380.44 120.309,-365.606"/>
<polygon fill="none" stroke="black" points="121.694,-362.379 111.217,-360.808 118.428,-368.57 121.694,-362.379"/>
</g>
<!-- \\Neuron\\Log\\Format\\HTML -->
<g id="node25" class="node"><title>\\Neuron\\Log\\Format\\HTML</title>
<polygon fill="none" stroke="black" points="266.557,-392 212.557,-392 212.557,-356 266.557,-356 266.557,-392"/>
<text text-anchor="middle" x="239.557" y="-370.7" font-family="Times,serif" font-size="11.00">HTML</text>
</g>
<!-- \\Neuron\\Log\\Format\\HTML&#45;&gt;\\Neuron\\Log\\Format\\IFormat -->
<g id="edge21" class="edge"><title>\\Neuron\\Log\\Format\\HTML&#45;&gt;\\Neuron\\Log\\Format\\IFormat</title>
<path fill="none" stroke="black" stroke-dasharray="1,5" d="M212.517,-369.42C187.486,-365.017 149.431,-358.324 121.415,-353.396"/>
<polygon fill="none" stroke="black" points="121.672,-349.888 111.217,-351.603 120.459,-356.782 121.672,-349.888"/>
</g>
<!-- \\Neuron\\Log\\Format\\JSON -->
<g id="node26" class="node"><title>\\Neuron\\Log\\Format\\JSON</title>
<polygon fill="none" stroke="black" points="266.557,-338 212.557,-338 212.557,-302 266.557,-302 266.557,-338"/>
<text text-anchor="middle" x="239.557" y="-316.7" font-family="Times,serif" font-size="11.00">JSON</text>
</g>
<!-- \\Neuron\\Log\\Format\\JSON&#45;&gt;\\Neuron\\Log\\Format\\IFormat -->
<g id="edge22" class="edge"><title>\\Neuron\\Log\\Format\\JSON&#45;&gt;\\Neuron\\Log\\Format\\IFormat</title>
<path fill="none" stroke="black" stroke-dasharray="1,5" d="M212.517,-324.58C187.486,-328.983 149.431,-335.676 121.415,-340.604"/>
<polygon fill="none" stroke="black" points="120.459,-337.218 111.217,-342.397 121.672,-344.112 120.459,-337.218"/>
</g>
<!-- \\Neuron\\Log\\Format\\PlainText -->
<g id="node27" class="node"><title>\\Neuron\\Log\\Format\\PlainText</title>
<polygon fill="none" stroke="black" points="268.559,-284 210.555,-284 210.555,-248 268.559,-248 268.559,-284"/>
<text text-anchor="middle" x="239.557" y="-262.7" font-family="Times,serif" font-size="11.00">PlainText</text>
</g>
<!-- \\Neuron\\Log\\Format\\PlainText&#45;&gt;\\Neuron\\Log\\Format\\IFormat -->
<g id="edge23" class="edge"><title>\\Neuron\\Log\\Format\\PlainText&#45;&gt;\\Neuron\\Log\\Format\\IFormat</title>
<path fill="none" stroke="black" stroke-dasharray="1,5" d="M210.483,-281.176C188.201,-293.177 156.229,-310.299 128.096,-325 125.669,-326.268 123.162,-327.57 120.634,-328.877"/>
<polygon fill="none" stroke="black" points="118.786,-325.892 111.496,-333.579 121.989,-332.116 118.786,-325.892"/>
</g>
<!-- \\Neuron\\Log\\Data -->
<g id="node29" class="node"><title>\\Neuron\\Log\\Data</title>
<polygon fill="none" stroke="black" points="266.557,-230 212.557,-230 212.557,-194 266.557,-194 266.557,-230"/>
<text text-anchor="middle" x="239.557" y="-208.7" font-family="Times,serif" font-size="11.00">Data</text>
</g>
<!-- \\Neuron\\Log\\LoggableBase -->
<g id="node30" class="node"><title>\\Neuron\\Log\\LoggableBase</title>
<polygon fill="none" stroke="black" points="278.98,-68 200.135,-68 200.135,-32 278.98,-32 278.98,-68"/>
<text text-anchor="middle" x="239.557" y="-46.7" font-family="Times,serif" font-size="11.00">LoggableBase</text>
</g>
<!-- \\Neuron\\Log\\ILogger -->
<g id="node33" class="node"><title>\\Neuron\\Log\\ILogger</title>
<polygon fill="none" stroke="black" points="111.048,-149 57.0481,-149 57.0481,-113 111.048,-113 111.048,-149"/>
<text text-anchor="middle" x="84.0481" y="-127.7" font-family="Times,serif" font-size="11.00">ILogger</text>
</g>
<!-- \\Neuron\\Log\\LoggableBase&#45;&gt;\\Neuron\\Log\\ILogger -->
<g id="edge24" class="edge"><title>\\Neuron\\Log\\LoggableBase&#45;&gt;\\Neuron\\Log\\ILogger</title>
<path fill="none" stroke="black" stroke-dasharray="1,5" d="M204.107,-68.178C179.071,-81.3883 145.302,-99.2065 120.123,-112.493"/>
<polygon fill="none" stroke="black" points="118.478,-109.403 111.267,-117.165 121.745,-115.594 118.478,-109.403"/>
</g>
<!-- \\Neuron\\Log\\Logger -->
<g id="node31" class="node"><title>\\Neuron\\Log\\Logger</title>
<polygon fill="none" stroke="black" points="266.557,-176 212.557,-176 212.557,-140 266.557,-140 266.557,-176"/>
<text text-anchor="middle" x="239.557" y="-154.7" font-family="Times,serif" font-size="11.00">Logger</text>
</g>
<!-- \\Neuron\\Log\\Logger&#45;&gt;\\Neuron\\Log\\ILogger -->
<g id="edge25" class="edge"><title>\\Neuron\\Log\\Logger&#45;&gt;\\Neuron\\Log\\ILogger</title>
<path fill="none" stroke="black" stroke-dasharray="1,5" d="M212.517,-153.42C187.486,-149.017 149.431,-142.324 121.415,-137.396"/>
<polygon fill="none" stroke="black" points="121.672,-133.888 111.217,-135.603 120.459,-140.782 121.672,-133.888"/>
</g>
<!-- \\Neuron\\Log\\LogMux -->
<g id="node32" class="node"><title>\\Neuron\\Log\\LogMux</title>
<polygon fill="none" stroke="black" points="266.56,-122 212.555,-122 212.555,-86 266.56,-86 266.56,-122"/>
<text text-anchor="middle" x="239.557" y="-100.7" font-family="Times,serif" font-size="11.00">LogMux</text>
</g>
<!-- \\Neuron\\Log\\LogMux&#45;&gt;\\Neuron\\Log\\ILogger -->
<g id="edge26" class="edge"><title>\\Neuron\\Log\\LogMux&#45;&gt;\\Neuron\\Log\\ILogger</title>
<path fill="none" stroke="black" stroke-dasharray="1,5" d="M212.517,-108.58C187.486,-112.983 149.431,-119.676 121.415,-124.604"/>
<polygon fill="none" stroke="black" points="120.459,-121.218 111.217,-126.397 121.672,-128.112 120.459,-121.218"/>
</g>
<!-- \\Neuron\\Parser\\CSV -->
<g id="node34" class="node"><title>\\Neuron\\Parser\\CSV</title>
<polygon fill="none" stroke="black" points="616.986,-919 562.986,-919 562.986,-883 616.986,-883 616.986,-919"/>
<text text-anchor="middle" x="589.986" y="-897.7" font-family="Times,serif" font-size="11.00">CSV</text>
</g>
<!-- \\Neuron\\Parser\\IParser -->
<g id="node37" class="node"><title>\\Neuron\\Parser\\IParser</title>
<polygon fill="none" stroke="black" points="422.676,-865 368.676,-865 368.676,-829 422.676,-829 422.676,-865"/>
<text text-anchor="middle" x="395.676" y="-843.7" font-family="Times,serif" font-size="11.00">IParser</text>
</g>
<!-- \\Neuron\\Parser\\CSV&#45;&gt;\\Neuron\\Parser\\IParser -->
<g id="edge27" class="edge"><title>\\Neuron\\Parser\\CSV&#45;&gt;\\Neuron\\Parser\\IParser</title>
<path fill="none" stroke="black" stroke-dasharray="1,5" d="M562.65,-893.605C528.987,-884.153 470.556,-867.745 432.768,-857.134"/>
<polygon fill="none" stroke="black" points="433.269,-853.64 422.695,-854.306 431.376,-860.379 433.269,-853.64"/>
</g>
<!-- \\Neuron\\Parser\\LastFirstMI -->
<g id="node35" class="node"><title>\\Neuron\\Parser\\LastFirstMI</title>
<polygon fill="none" stroke="black" points="624.044,-865 555.929,-865 555.929,-829 624.044,-829 624.044,-865"/>
<text text-anchor="middle" x="589.986" y="-843.7" font-family="Times,serif" font-size="11.00">LastFirstMI</text>
</g>
<!-- \\Neuron\\Parser\\LastFirstMI&#45;&gt;\\Neuron\\Parser\\IParser -->
<g id="edge28" class="edge"><title>\\Neuron\\Parser\\LastFirstMI&#45;&gt;\\Neuron\\Parser\\IParser</title>
<path fill="none" stroke="black" stroke-dasharray="1,5" d="M555.927,-847C521.767,-847 468.584,-847 433.201,-847"/>
<polygon fill="none" stroke="black" points="432.832,-843.5 422.832,-847 432.832,-850.5 432.832,-843.5"/>
</g>
<!-- \\Neuron\\Parser\\Positional -->
<g id="node36" class="node"><title>\\Neuron\\Parser\\Positional</title>
<polygon fill="none" stroke="black" points="619.992,-811 559.981,-811 559.981,-775 619.992,-775 619.992,-811"/>
<text text-anchor="middle" x="589.986" y="-789.7" font-family="Times,serif" font-size="11.00">Positional</text>
</g>
<!-- \\Neuron\\Parser\\Positional&#45;&gt;\\Neuron\\Parser\\IParser -->
<g id="edge29" class="edge"><title>\\Neuron\\Parser\\Positional&#45;&gt;\\Neuron\\Parser\\IParser</title>
<path fill="none" stroke="black" stroke-dasharray="1,5" d="M559.779,-801.201C525.683,-810.775 469.292,-826.61 432.561,-836.924"/>
<polygon fill="none" stroke="black" points="431.439,-833.603 422.757,-839.677 433.331,-840.343 431.439,-833.603"/>
</g>
<!-- \\Neuron\\Setting\\Source\\Ini -->
<g id="node38" class="node"><title>\\Neuron\\Setting\\Source\\Ini</title>
<polygon fill="none" stroke="black" points="616.986,-665 562.986,-665 562.986,-629 616.986,-629 616.986,-665"/>
<text text-anchor="middle" x="589.986" y="-643.7" font-family="Times,serif" font-size="11.00">Ini</text>
</g>
<!-- \\Neuron\\Setting\\Source\\ISettingSource -->
<g id="node39" class="node"><title>\\Neuron\\Setting\\Source\\ISettingSource</title>
<polygon fill="none" stroke="black" points="436.554,-665 354.798,-665 354.798,-629 436.554,-629 436.554,-665"/>
<text text-anchor="middle" x="395.676" y="-643.7" font-family="Times,serif" font-size="11.00">ISettingSource</text>
</g>
<!-- \\Neuron\\Setting\\Source\\Ini&#45;&gt;\\Neuron\\Setting\\Source\\ISettingSource -->
<g id="edge30" class="edge"><title>\\Neuron\\Setting\\Source\\Ini&#45;&gt;\\Neuron\\Setting\\Source\\ISettingSource</title>
<path fill="none" stroke="black" stroke-dasharray="1,5" d="M562.65,-647C532.843,-647 483.615,-647 446.495,-647"/>
<polygon fill="none" stroke="black" points="446.373,-643.5 436.373,-647 446.373,-650.5 446.373,-643.5"/>
</g>
<!-- \\Neuron\\Setting\\SettingManager -->
<g id="node40" class="node"><title>\\Neuron\\Setting\\SettingManager</title>
<polygon fill="none" stroke="black" points="633.246,-611 546.727,-611 546.727,-575 633.246,-575 633.246,-611"/>
<text text-anchor="middle" x="589.986" y="-589.7" font-family="Times,serif" font-size="11.00">SettingManager</text>
</g>
<!-- \\Neuron\\Util\\Date -->
<g id="node41" class="node"><title>\\Neuron\\Util\\Date</title>
<polygon fill="none" stroke="black" points="616.986,-453 562.986,-453 562.986,-417 616.986,-417 616.986,-453"/>
<text text-anchor="middle" x="589.986" y="-431.7" font-family="Times,serif" font-size="11.00">Date</text>
</g>
<!-- \\Neuron\\Util\\Email -->
<g id="node42" class="node"><title>\\Neuron\\Util\\Email</title>
<polygon fill="none" stroke="black" points="616.986,-399 562.986,-399 562.986,-363 616.986,-363 616.986,-399"/>
<text text-anchor="middle" x="589.986" y="-377.7" font-family="Times,serif" font-size="11.00">Email</text>
</g>
<!-- \\Neuron\\Util\\System -->
<g id="node43" class="node"><title>\\Neuron\\Util\\System</title>
<polygon fill="none" stroke="black" points="616.986,-345 562.986,-345 562.986,-309 616.986,-309 616.986,-345"/>
<text text-anchor="middle" x="589.986" y="-323.7" font-family="Times,serif" font-size="11.00">System</text>
</g>
<!-- \\Neuron\\Util\\Template -->
<g id="node44" class="node"><title>\\Neuron\\Util\\Template</title>
<polygon fill="none" stroke="black" points="618.253,-291 561.719,-291 561.719,-255 618.253,-255 618.253,-291"/>
<text text-anchor="middle" x="589.986" y="-269.7" font-family="Times,serif" font-size="11.00">Template</text>
</g>
<!-- \\Neuron\\ApplicationBase -->
<g id="node45" class="node"><title>\\Neuron\\ApplicationBase</title>
<polygon fill="none" stroke="black" points="440.492,-78 350.86,-78 350.86,-42 440.492,-42 440.492,-78"/>
<text text-anchor="start" x="373.075" y="-62.2" font-family="Times,serif" font-size="11.00">«abstract»</text>
<text text-anchor="start" x="359.019" y="-51.2" font-family="Times,serif" font-size="11.00">ApplicationBase</text>
</g>
<!-- \\Neuron\\ApplicationBase&#45;&gt;\\Neuron\\Log\\LoggableBase -->
<g id="edge1" class="edge"><title>\\Neuron\\ApplicationBase&#45;&gt;\\Neuron\\Log\\LoggableBase</title>
<path fill="none" stroke="black" d="M350.924,-57.1611C331.675,-55.9122 308.993,-54.4404 289.214,-53.1571"/>
<polygon fill="none" stroke="black" points="289.374,-49.6602 279.168,-52.5053 288.921,-56.6455 289.374,-49.6602"/>
</g>
<!-- \\Neuron\\IApplication -->
<g id="node47" class="node"><title>\\Neuron\\IApplication</title>
<polygon fill="none" stroke="black" points="275.155,-1055 203.96,-1055 203.96,-1019 275.155,-1019 275.155,-1055"/>
<text text-anchor="middle" x="239.557" y="-1033.7" font-family="Times,serif" font-size="11.00">IApplication</text>
</g>
<!-- \\Neuron\\ApplicationBase&#45;&gt;\\Neuron\\IApplication -->
<g id="edge2" class="edge"><title>\\Neuron\\ApplicationBase&#45;&gt;\\Neuron\\IApplication</title>
<path fill="none" stroke="black" stroke-dasharray="1,5" d="M392.804,-78.0846C379.571,-205.737 300.353,-966.614 289.994,-988 285.777,-996.706 279.364,-1004.76 272.54,-1011.71"/>
<polygon fill="none" stroke="black" points="269.905,-1009.39 265.059,-1018.81 274.723,-1014.47 269.905,-1009.39"/>
</g>
<!-- \\Neuron\\CommandLineApplicationBase -->
<g id="node46" class="node"><title>\\Neuron\\CommandLineApplicationBase</title>
<polygon fill="none" stroke="black" points="667.791,-78 512.181,-78 512.181,-42 667.791,-42 667.791,-78"/>
<text text-anchor="start" x="567.385" y="-62.2" font-family="Times,serif" font-size="11.00">«abstract»</text>
<text text-anchor="start" x="520.334" y="-51.2" font-family="Times,serif" font-size="11.00">CommandLineApplicationBase</text>
</g>
<!-- \\Neuron\\CommandLineApplicationBase&#45;&gt;\\Neuron\\ApplicationBase -->
<g id="edge3" class="edge"><title>\\Neuron\\CommandLineApplicationBase&#45;&gt;\\Neuron\\ApplicationBase</title>
<path fill="none" stroke="black" d="M512.151,-60C491.488,-60 469.584,-60 450.47,-60"/>
<polygon fill="none" stroke="black" points="450.459,-56.5001 440.459,-60 450.459,-63.5001 450.459,-56.5001"/>
</g>
<!-- \\Neuron\\IApplication&#45;&gt;\\Neuron\\Log\\ILogger -->
<g id="edge31" class="edge"><title>\\Neuron\\IApplication&#45;&gt;\\Neuron\\Log\\ILogger</title>
<path fill="none" stroke="black" d="M216.343,-1018.71C207.712,-1010.31 198.685,-999.627 193.565,-988 58.3586,-680.965 207.178,-562.033 128.096,-236 121.441,-208.562 108.747,-178.94 98.861,-158.177"/>
<polygon fill="none" stroke="black" points="101.931,-156.486 94.4103,-149.023 95.6351,-159.547 101.931,-156.486"/>
</g>
</g>
</svg>
